<svg width="391" height="391" viewBox="0 0 391 391" fill="none" xmlns="http://www.w3.org/2000/svg">
<path fill-rule="evenodd" clip-rule="evenodd" d="M18 11.5C14.4102 11.5 11.5 14.4102 11.5 18V106.75H0.5V18C0.5 8.33503 8.33501 0.5 18 0.5H106.75V11.5H18ZM373 11.5H284.25V0.5H373C382.665 0.5 390.5 8.33501 390.5 18V106.75H379.5V18C379.5 14.4102 376.59 11.5 373 11.5ZM11.5 284.25V373C11.5 376.59 14.4102 379.5 18 379.5H106.75V390.5H18C8.33502 390.5 0.5 382.665 0.5 373V284.25H11.5ZM379.5 373V284.25H390.5V373C390.5 382.665 382.665 390.5 373 390.5H284.25V379.5H373C376.59 379.5 379.5 376.59 379.5 373Z" fill="white"/>
</svg>
