<?xml version="1.0" standalone="no"?>
<!DOCTYPE svg PUBLIC "-//W3C//DTD SVG 20010904//EN"
 "http://www.w3.org/TR/2001/REC-SVG-20010904/DTD/svg10.dtd">
<svg version="1.0" xmlns="http://www.w3.org/2000/svg"
 width="1600.000000pt" height="475.000000pt" viewBox="0 0 1600.000000 475.000000"
 preserveAspectRatio="xMidYMid meet">

<g transform="translate(0.000000,475.000000) scale(0.100000,-0.100000)"
fill="#000000" stroke="none">
<path d="M480 4639 c-183 -31 -340 -193 -370 -379 -14 -89 -14 -3670 0 -3760
16 -98 68 -197 141 -264 69 -64 114 -90 196 -111 50 -13 934 -15 7559 -15
7428 0 7503 0 7565 20 139 42 249 148 303 288 l21 57 3 1615 c1 888 -1 1750
-6 1915 l-7 300 -36 76 c-58 122 -169 215 -294 247 -53 14 -14997 25 -15075
11z m2870 -702 c0 -128 -51 -270 -142 -393 -97 -131 -288 -234 -433 -234 l-35
0 0 63 c1 221 144 449 354 563 69 38 173 73 219 73 l37 1 0 -73z m2734 -8 c34
-27 35 -71 1 -104 -30 -31 -73 -32 -109 -4 -54 43 -18 129 54 129 15 0 39 -9
54 -21z m2951 -18 c-6 -4 -45 -36 -88 -70 -75 -58 -81 -61 -134 -61 l-55 0 63
69 64 69 80 1 c45 1 75 -3 70 -8z m1355 -361 l0 -370 -65 0 -65 0 0 370 0 370
65 0 65 0 0 -370z m-4759 294 c81 -38 133 -90 168 -163 22 -48 26 -69 26 -151
0 -82 -4 -103 -26 -151 -35 -73 -87 -125 -168 -163 l-66 -31 -212 -3 -213 -4
0 352 0 352 213 -4 212 -3 66 -31z m934 -140 c33 -8 64 -19 70 -25 15 -15 -36
-101 -55 -93 -112 49 -250 34 -250 -26 0 -29 38 -49 126 -65 111 -21 137 -31
169 -65 41 -42 47 -121 13 -170 -38 -55 -98 -83 -193 -88 -85 -5 -189 15 -232
44 l-23 15 25 48 24 49 38 -19 c102 -50 241 -44 256 11 9 36 -23 56 -123 74
-157 29 -200 64 -200 167 0 49 3 55 44 94 25 24 60 47 82 53 59 15 163 14 229
-4z m620 -12 c47 -24 95 -73 121 -122 14 -27 19 -57 19 -125 0 -99 -12 -133
-69 -193 -55 -59 -100 -77 -197 -77 -77 0 -90 3 -127 28 l-42 27 0 -120 0
-120 -65 0 -65 0 0 360 0 360 60 0 60 0 0 -32 0 -31 24 22 c13 13 41 29 63 37
53 20 167 13 218 -14z m618 8 c109 -41 171 -133 171 -255 0 -197 -177 -319
-378 -261 -191 56 -250 313 -105 458 76 76 201 99 312 58z m738 -15 c76 -54
84 -81 87 -307 l3 -198 -65 0 -66 0 0 173 c0 153 -2 176 -20 204 -39 64 -142
69 -208 8 l-37 -33 -3 -176 -3 -176 -65 0 -64 0 0 265 0 265 60 0 c57 0 60 -1
60 -24 l0 -25 58 30 c52 28 64 30 139 27 71 -3 86 -7 124 -33z m1430 23 c102
-34 168 -121 177 -234 l5 -64 -212 0 -212 0 7 -22 c20 -67 85 -108 169 -108
51 0 92 14 121 41 l21 20 33 -41 c17 -22 30 -46 27 -53 -2 -7 -29 -26 -58 -41
-100 -55 -252 -45 -345 23 -86 63 -123 190 -90 305 21 71 89 145 157 169 53
19 153 21 200 5z m1290 -23 c76 -54 84 -81 87 -307 l3 -198 -65 0 -66 0 0 173
c0 153 -2 176 -20 204 -35 57 -135 69 -194 22 -50 -39 -56 -65 -56 -239 l0
-160 -65 0 -65 0 0 265 0 265 60 0 c57 0 60 -1 60 -24 l0 -25 58 30 c52 28 64
30 139 27 71 -3 86 -7 124 -33z m562 23 c54 -16 112 -73 126 -123 6 -22 11
-120 11 -222 l0 -183 -60 0 c-58 0 -60 1 -60 27 0 24 -1 25 -18 10 -76 -69
-240 -60 -312 17 -34 37 -40 137 -12 182 35 55 92 74 220 74 l112 0 0 26 c0
37 -16 61 -52 80 -42 22 -139 15 -196 -13 l-43 -21 -24 49 -25 48 32 17 c83
43 216 57 301 32z m-5733 -263 l0 -265 -65 0 -65 0 0 265 0 265 65 0 65 0 0
-265z m2820 0 l0 -265 -65 0 -65 0 0 265 0 265 65 0 65 0 0 -265z m285 76 c44
-104 82 -188 85 -186 4 2 42 87 86 189 l79 186 63 0 c36 0 62 -4 60 -10 -1 -5
-52 -124 -113 -265 l-110 -255 -69 2 -69 3 -107 245 c-58 135 -109 253 -113
263 -6 15 1 17 61 17 l68 0 79 -189z m-6772 -268 c29 -8 104 -35 167 -60 156
-62 194 -62 354 1 181 71 244 86 367 86 207 0 360 -61 502 -201 48 -47 87 -90
87 -95 -1 -5 -26 -27 -57 -49 -115 -82 -227 -255 -254 -392 -19 -100 -8 -273
24 -361 51 -144 155 -269 298 -353 80 -48 78 -34 19 -175 -76 -180 -234 -420
-350 -534 -36 -36 -93 -78 -126 -95 -54 -27 -67 -30 -159 -30 -78 1 -112 5
-155 22 -222 87 -290 101 -407 84 -40 -6 -99 -20 -131 -32 -204 -75 -228 -82
-298 -83 -60 0 -80 4 -137 32 -185 92 -432 445 -551 788 -100 293 -126 620
-67 854 27 109 106 268 170 346 178 214 468 317 704 247z m7789 -653 c73 -14
168 -50 168 -64 0 -7 -14 -55 -30 -108 l-30 -96 -58 24 c-86 35 -156 47 -261
42 -168 -7 -242 -63 -249 -189 -7 -114 40 -170 205 -245 224 -102 280 -134
345 -194 48 -44 77 -80 100 -128 32 -64 33 -71 33 -187 0 -120 0 -122 -38
-197 -66 -135 -184 -219 -357 -254 -102 -20 -321 -15 -414 11 -47 13 -148 56
-164 70 -3 2 48 196 54 207 3 4 32 -6 67 -22 99 -46 179 -63 297 -63 201 1
300 76 300 229 -1 134 -68 199 -305 293 -171 68 -298 169 -352 279 -25 52 -28
67 -28 167 0 102 2 115 31 176 50 106 162 199 286 238 93 30 271 35 400 11z
m-4104 -790 c139 -428 252 -784 252 -790 0 -6 -48 -10 -134 -10 l-134 0 -42
133 c-23 72 -55 176 -73 230 l-31 97 -256 0 -256 0 -43 -142 c-24 -79 -54
-182 -68 -230 l-26 -88 -134 0 c-111 0 -134 2 -130 14 3 7 14 42 25 77 47 151
474 1475 479 1482 2 4 75 7 162 7 l157 0 252 -780z m5032 347 l135 -2 3 -97 3
-98 -141 0 -141 0 3 -322 c3 -304 4 -325 24 -363 30 -59 72 -77 160 -72 l71 5
7 -89 c4 -49 4 -94 1 -99 -18 -30 -229 -40 -314 -14 -71 21 -140 89 -172 169
-23 58 -24 69 -27 423 l-3 362 -85 0 -85 0 3 98 3 97 80 0 80 0 5 105 5 104
120 36 120 36 5 -139 5 -139 135 -1z m-3803 -2 c141 -42 270 -197 314 -375 20
-81 18 -308 -4 -390 -51 -190 -175 -330 -338 -381 -79 -25 -225 -26 -295 -2
-58 19 -124 62 -153 99 l-21 27 0 -292 0 -291 -130 0 -130 0 0 693 c0 382 -3
742 -7 800 l-6 107 116 0 117 0 0 -32 c0 -18 3 -56 6 -85 l7 -51 54 59 c113
121 297 166 470 114z m1313 -2 c143 -48 260 -187 307 -363 23 -88 23 -298 0
-394 -49 -195 -184 -346 -351 -391 -48 -13 -90 -16 -167 -13 -126 5 -195 33
-259 105 l-40 46 0 -297 0 -296 -125 0 -125 0 0 663 c0 365 -3 725 -7 800 l-6
137 116 0 117 0 0 -39 c0 -21 3 -59 6 -84 l7 -45 54 59 c92 99 215 144 363
132 36 -3 85 -12 110 -20z m3485 5 c180 -39 329 -195 381 -398 22 -88 22 -253
-1 -345 -52 -207 -196 -360 -386 -410 -72 -20 -249 -19 -324 0 -177 46 -319
200 -370 400 -19 76 -19 260 0 342 42 180 172 333 332 393 102 38 244 45 368
18z m1203 16 c21 -6 22 -10 22 -125 l0 -119 -77 0 c-123 -1 -195 -47 -247
-159 -20 -44 -21 -65 -24 -403 l-3 -358 -130 0 -129 0 0 539 c0 296 -3 553 -6
570 l-6 31 116 0 116 0 1 -62 c0 -35 3 -80 7 -102 l7 -39 18 39 c44 91 119
154 216 180 52 14 86 16 119 8z m778 -5 c152 -28 274 -135 333 -294 27 -72 46
-226 37 -298 l-7 -57 -381 0 -381 0 7 -42 c23 -148 97 -237 224 -274 92 -27
316 -11 423 31 13 5 19 -10 33 -79 10 -46 15 -89 12 -94 -18 -30 -230 -72
-363 -72 -91 0 -207 20 -268 45 -109 47 -210 147 -258 255 -41 93 -52 157 -51
290 1 106 5 137 27 205 95 287 331 436 613 384z"/>
<path d="M5270 3530 l0 -242 123 3 c110 4 128 7 180 32 67 34 101 77 118 154
25 111 -21 212 -118 260 -52 25 -70 28 -180 32 l-123 3 0 -242z"/>
<path d="M6960 3587 c-50 -33 -71 -76 -71 -142 0 -97 51 -155 143 -162 39 -3
62 1 88 15 43 23 80 91 80 147 0 58 -37 126 -80 147 -50 25 -119 23 -160 -5z"/>
<path d="M7609 3587 c-44 -29 -69 -80 -69 -142 0 -96 52 -155 142 -163 59 -4
102 17 142 71 30 41 29 138 -2 188 -42 69 -146 91 -213 46z"/>
<path d="M9810 3598 c-31 -16 -51 -35 -64 -61 -10 -21 -16 -40 -13 -43 2 -2
70 -3 150 -2 l146 3 -19 43 c-15 33 -29 47 -62 62 -56 25 -84 25 -138 -2z"/>
<path d="M11643 3395 c-42 -18 -53 -57 -26 -93 26 -34 76 -47 127 -32 57 17
86 51 86 100 l0 40 -77 0 c-44 -1 -92 -7 -110 -15z"/>
<path d="M5652 2237 c-18 -73 -64 -229 -101 -347 l-68 -215 103 -3 c57 -1 151
-1 208 0 l104 3 -69 215 c-38 118 -85 273 -104 344 -19 71 -36 130 -38 132 -1
2 -18 -56 -35 -129z"/>
<path d="M7021 1953 c-64 -23 -133 -95 -160 -168 -20 -54 -22 -74 -19 -230 3
-155 5 -174 26 -215 30 -58 67 -96 117 -123 58 -31 193 -31 251 0 135 72 203
279 159 486 -19 92 -51 151 -107 202 -71 64 -171 82 -267 48z"/>
<path d="M8337 1956 c-101 -38 -166 -124 -188 -251 -15 -88 -6 -274 16 -337
23 -66 84 -131 147 -158 43 -18 65 -22 123 -18 159 11 248 113 277 318 26 188
-43 369 -167 432 -51 27 -156 34 -208 14z"/>
<path d="M11913 1981 c-132 -34 -220 -170 -231 -358 -11 -203 58 -361 183
-419 93 -44 196 -28 274 42 78 70 130 208 131 345 0 61 -29 190 -55 239 -24
47 -84 109 -126 131 -43 22 -130 32 -176 20z"/>
<path d="M13930 1991 c-101 -31 -184 -134 -204 -253 l-7 -38 262 0 262 0 -5
58 c-7 72 -45 150 -94 190 -54 45 -146 63 -214 43z"/>
</g>
</svg>
