<svg width="45" height="45" viewBox="0 0 45 45" fill="none" xmlns="http://www.w3.org/2000/svg">
<path d="M45 22.5C45 10.1025 34.8975 0 22.5 0C10.1025 0 0 10.1025 0 22.5C0 29.025 2.8125 34.8975 7.2675 39.015C7.2675 39.0375 7.2675 39.0375 7.245 39.06C7.47 39.285 7.74 39.465 7.965 39.6675C8.1 39.78 8.2125 39.8925 8.3475 39.9825C8.7525 40.32 9.2025 40.635 9.63 40.95L10.08 41.265C10.5075 41.5575 10.9575 41.8275 11.43 42.075C11.5875 42.165 11.7675 42.2775 11.925 42.3675C12.375 42.615 12.8475 42.84 13.3425 43.0425C13.5225 43.1325 13.7025 43.2225 13.8825 43.29C14.3775 43.4925 14.8725 43.6725 15.3675 43.83C15.5475 43.8975 15.7275 43.965 15.9075 44.01C16.4475 44.1675 16.9875 44.3025 17.5275 44.4375C17.685 44.4825 17.8425 44.5275 18.0225 44.55C18.6525 44.685 19.2825 44.775 19.935 44.8425C20.025 44.8425 20.115 44.865 20.205 44.8875C20.97 44.955 21.735 45 22.5 45C23.265 45 24.03 44.955 24.7725 44.8875C24.8625 44.8875 24.9525 44.865 25.0425 44.8425C25.695 44.775 26.325 44.685 26.955 44.55C27.1125 44.5275 27.27 44.46 27.45 44.4375C27.99 44.3025 28.5525 44.19 29.07 44.01C29.25 43.9425 29.43 43.875 29.61 43.83C30.105 43.65 30.6225 43.4925 31.095 43.29C31.275 43.2225 31.455 43.1325 31.635 43.0425C32.1075 42.84 32.58 42.615 33.0525 42.3675C33.2325 42.2775 33.39 42.165 33.5475 42.075C33.9975 41.805 34.4475 41.5575 34.8975 41.265C35.055 41.175 35.19 41.0625 35.3475 40.95C35.7975 40.635 36.225 40.32 36.63 39.9825C36.765 39.87 36.8775 39.7575 37.0125 39.6675C37.26 39.465 37.5075 39.2625 37.7325 39.06C37.7325 39.0375 37.7325 39.0375 37.71 39.015C42.1875 34.8975 45 29.025 45 22.5ZM33.615 33.6825C27.5175 29.5875 17.5275 29.5875 11.385 33.6825C10.395 34.335 9.585 35.1 8.91 35.9325C5.36583 32.3601 3.37645 27.5322 3.375 22.5C3.375 11.9475 11.9475 3.375 22.5 3.375C33.0525 3.375 41.625 11.9475 41.625 22.5C41.625 27.72 39.51 32.4675 36.09 35.9325C35.4375 35.1 34.605 34.335 33.615 33.6825Z" fill="white"/>
<path d="M22.5 11.0918C17.8425 11.0918 14.0625 14.8718 14.0625 19.5293C14.0625 24.0968 17.64 27.8093 22.3875 27.9443H22.7925C24.9766 27.8725 27.0473 26.9545 28.5671 25.3843C30.087 23.8141 30.9369 21.7146 30.9375 19.5293C30.9375 14.8718 27.1575 11.0918 22.5 11.0918Z" fill="white"/>
</svg>