<svg width="539" height="378" viewBox="0 0 539 378" fill="none" xmlns="http://www.w3.org/2000/svg">
<path d="M-216.341 148.967C-481.504 148.967 -576.453 370.901 -601.155 451.955C-625.857 533.009 -707.683 887.048 -707.683 887.048L791.045 887.05C805.455 596.799 745.208 -251.534 441.741 72.7087C145.314 389.429 48.8215 148.967 -216.341 148.967Z" fill="#1A7FB7"/>
<path d="M-306.658 196.546C-571.821 196.546 -666.77 418.479 -691.472 499.533C-716.174 580.587 -798 1013.65 -798 1013.65L700.728 1013.65C715.138 723.398 654.891 -203.956 351.424 120.287C54.9976 437.007 -41.4954 196.546 -306.658 196.546Z" fill="#53337D"/>
<path d="M-271.92 175.986C-537.083 175.986 -632.032 397.919 -656.734 478.973C-681.436 560.027 -763.262 1332.07 -763.262 1332.07L735.466 1332.08C749.875 1041.83 689.628 -224.515 386.161 99.7274C89.7351 416.448 -6.75781 175.986 -271.92 175.986Z" stroke="#53337D" stroke-width="5"/>
</svg>
