<svg width="539" height="166" viewBox="0 0 539 166" fill="none" xmlns="http://www.w3.org/2000/svg">
<mask id="mask0_35_47" style="mask-type:alpha" maskUnits="userSpaceOnUse" x="0" y="0" width="539" height="166">
<rect width="539" height="166" fill="#D9D9D9"/>
</mask>
<g mask="url(#mask0_35_47)">
<path d="M250.752 -0.0231323C-91.4953 -0.0231323 -214.047 287.476 -245.93 392.476C-277.813 497.476 -383.427 956.11 -383.427 956.11L1550.99 956.112C1569.59 580.112 1491.83 -518.845 1100.14 -98.8109C717.544 311.479 592.999 -0.0231323 250.752 -0.0231323Z" fill="#1A7FB7"/>
<path d="M134.179 61.6102C-208.069 61.6102 -330.62 349.11 -362.503 454.11C-394.387 559.11 -500 1120.11 -500 1120.11L1434.42 1120.11C1453.02 744.112 1375.26 -457.212 983.57 -37.1775C600.97 373.112 476.426 61.6102 134.179 61.6102Z" fill="#53337D"/>
<path d="M179.015 34.9769C-163.233 34.9769 -285.784 322.476 -317.667 427.476C-349.551 532.476 -455.164 1532.61 -455.164 1532.61L1479.26 1532.61C1497.85 1156.61 1420.09 -483.845 1028.41 -63.8108C645.806 346.479 521.262 34.9769 179.015 34.9769Z" stroke="#53337D" stroke-width="7"/>
</g>
</svg>
