<svg width="565" height="914" viewBox="0 0 565 914" fill="none" xmlns="http://www.w3.org/2000/svg">
<path d="M275.5 192.977C-68 192.977 -191 480.476 -223 585.476C-255 690.476 -361 1149.11 -361 1149.11L1580.5 1149.11C1599.17 773.112 1521.12 -325.845 1128 94.1891C744 504.479 619 192.977 275.5 192.977Z" fill="#1A7FB7"/>
<path d="M158.5 254.61C-185 254.61 -308 542.11 -340 647.11C-372 752.11 -478 1313.11 -478 1313.11L1463.5 1313.11C1482.17 937.112 1404.12 -264.212 1011 155.823C627 566.112 502 254.61 158.5 254.61Z" fill="#53337D"/>
<path d="M203.5 227.977C-140 227.977 -263 515.476 -295 620.476C-327 725.476 -433 1725.61 -433 1725.61L1508.5 1725.61C1527.17 1349.61 1449.12 -290.845 1056 129.189C672 539.479 547 227.977 203.5 227.977Z" stroke="#53337D" stroke-width="7"/>
</svg>
