<svg width="467" height="342" viewBox="0 0 467 342" fill="none" xmlns="http://www.w3.org/2000/svg">
<path d="M171.847 248.725L171.641 246.034H174.34H411.005C440.676 246.034 464.5 223.254 464.5 195.429V53.1056C464.5 25.2801 440.676 2.5 411.005 2.5H55.9952C26.3242 2.5 2.5 25.2801 2.5 53.1056V195.429C2.5 223.254 26.3242 246.034 55.9952 246.034H79.7722H81.5148L82.1178 247.669C90.2733 269.784 103.403 292.696 125.84 310.089C146.438 326.057 175.067 337.518 215.319 339.267C205.761 333.024 197.031 323.157 189.938 310.772C180.397 294.115 173.683 272.689 171.847 248.725Z" fill="white" stroke="url(#paint0_linear_156_421)" stroke-width="5"/>
<defs>
<linearGradient id="paint0_linear_156_421" x1="467" y1="171" x2="0" y2="171" gradientUnits="userSpaceOnUse">
<stop stop-color="#1A7FB7"/>
<stop offset="1" stop-color="#53337D"/>
</linearGradient>
</defs>
</svg>
