<svg width="570" height="239" viewBox="0 0 570 239" fill="none" xmlns="http://www.w3.org/2000/svg">
<path d="M171.846 144.834L171.64 142.143H174.339H514.001C543.672 142.143 567.497 119.363 567.497 91.5372V53.1056C567.497 25.28 543.672 2.5 514.001 2.5H55.9947C26.3237 2.5 2.5 25.28 2.5 53.1056V91.5372C2.5 119.363 26.3237 142.143 55.9947 142.143H79.7716H81.5143L82.1172 143.778C90.2727 165.893 103.402 188.805 125.839 206.198C146.437 222.166 175.066 233.626 215.319 235.376C205.761 229.133 197.031 219.265 189.937 206.881C180.396 190.224 173.683 168.798 171.846 144.834Z" fill="white" stroke="url(#paint0_linear_936_898)" stroke-width="5"/>
<defs>
<linearGradient id="paint0_linear_936_898" x1="467.001" y1="67.1054" x2="0.00143363" y2="67.1054" gradientUnits="userSpaceOnUse">
<stop stop-color="#1A7FB7"/>
<stop offset="1" stop-color="#53337D"/>
</linearGradient>
</defs>
</svg>