<svg width="33" height="32" viewBox="0 0 33 32" fill="none" xmlns="http://www.w3.org/2000/svg">
<path d="M22.4001 17.4399V24.1599C22.4001 29.7599 20.1601 31.9999 14.5601 31.9999H7.84003C2.24001 31.9999 0 29.7599 0 24.1599V17.4399C0 11.8399 2.24001 9.59985 7.84003 9.59985H14.5601C20.1601 9.59985 22.4001 11.8399 22.4001 17.4399Z" fill="white"/>
<path opacity="0.4" d="M24.1632 0H17.4432C11.9231 0 9.68314 2.19201 9.61914 7.60003H14.5632C21.2832 7.60003 24.4032 10.72 24.4032 17.4401V22.3841C29.8112 22.3201 32.0032 20.0801 32.0032 14.5601V7.84003C32.0032 2.24001 29.7632 0 24.1632 0Z" fill="white"/>
</svg>
