<svg version="1.1" id="Layer_1" xmlns="http://www.w3.org/2000/svg" xmlns:xlink="http://www.w3.org/1999/xlink" x="0px" y="0px"
	 width="100%" viewBox="0 0 1600 469" enable-background="new 0 0 1600 469" xml:space="preserve">
<path fill="#A4A4A4" opacity="1.000000" stroke="none" 
	d="
M0.999999,427.000000 
	C1.000000,299.969086 1.000000,172.938171 1.316339,45.754135 
	C1.901380,45.410332 2.333911,45.272808 2.415479,45.021416 
	C9.389089,23.528313 23.321823,9.149259 45.281559,2.886133 
	C45.668850,2.775673 45.766956,1.651279 46.000000,1.000000 
	C548.697571,1.000000 1051.395142,1.000000 1554.304932,1.346132 
	C1554.764282,1.914761 1554.976196,2.259379 1555.263672,2.342428 
	C1577.302612,8.708745 1592.443237,22.234203 1599.217163,44.523598 
	C1599.311523,44.834301 1600.384033,44.847801 1601.000000,45.000000 
	C1601.000000,172.030914 1601.000000,299.061829 1600.686523,426.239838 
	C1599.994141,426.701447 1599.393188,426.945679 1599.268188,427.340485 
	C1592.784912,447.826202 1579.312866,461.353302 1558.930908,468.092682 
	C1558.461670,468.247833 1558.303345,469.343170 1558.000000,470.000000 
	C1053.635742,470.000000 549.271484,470.000000 44.757599,469.685059 
	C44.290306,468.993073 44.042770,468.398102 43.645004,468.270142 
	C23.249250,461.708221 9.568317,448.402618 2.907472,427.951416 
	C2.753112,427.477448 1.656894,427.310272 0.999999,427.000000 
M345.499878,460.436310 
	C743.458557,460.436249 1141.417358,460.326324 1539.375732,460.663849 
	C1568.328125,460.688416 1591.617676,437.751312 1591.446533,408.529694 
	C1590.769897,293.045502 1591.173828,177.554993 1591.143555,62.066826 
	C1591.142700,58.581951 1591.161255,55.022331 1590.509766,51.624325 
	C1585.771973,26.918024 1565.842529,10.952717 1539.958008,10.952616 
	C1097.003418,10.950890 654.048889,10.951353 211.094299,10.951359 
	C160.932770,10.951360 110.771210,10.914719 60.609737,10.965992 
	C32.543274,10.994680 10.847038,32.590889 10.841177,60.486027 
	C10.816630,177.307388 10.826586,294.128754 10.855199,410.950104 
	C10.855930,413.935730 10.898885,416.982788 11.460980,419.897247 
	C16.150398,444.211639 35.714840,460.408142 60.528973,460.418884 
	C155.185913,460.459930 249.842880,460.436188 345.499878,460.436310 
z"/>
<path fill="#000000" opacity="1.000000" stroke="none" 
	d="
M1601.000000,44.531342 
	C1600.384033,44.847801 1599.311523,44.834301 1599.217163,44.523598 
	C1592.443237,22.234203 1577.302612,8.708745 1555.263672,2.342428 
	C1554.976196,2.259379 1554.764282,1.914761 1554.758545,1.346132 
	C1570.258423,1.000000 1585.516846,1.000000 1601.000000,1.000000 
	C1601.000000,15.353446 1601.000000,29.708065 1601.000000,44.531342 
z"/>
<path fill="#000000" opacity="1.000000" stroke="none" 
	d="
M45.531342,1.000000 
	C45.766956,1.651279 45.668850,2.775673 45.281559,2.886133 
	C23.321823,9.149259 9.389089,23.528313 2.415479,45.021416 
	C2.333911,45.272808 1.901380,45.410332 1.316339,45.300507 
	C1.000000,30.405807 1.000000,15.811616 1.000000,1.000000 
	C15.686846,1.000000 30.374765,1.000000 45.531342,1.000000 
z"/>
<path fill="#000000" opacity="1.000000" stroke="none" 
	d="
M0.999999,427.468658 
	C1.656894,427.310272 2.753112,427.477448 2.907472,427.951416 
	C9.568317,448.402618 23.249250,461.708221 43.645004,468.270142 
	C44.042770,468.398102 44.290306,468.993073 44.303970,469.685059 
	C29.739979,470.000000 15.479958,470.000000 1.000000,470.000000 
	C1.000000,455.979858 1.000000,441.958588 0.999999,427.468658 
z"/>
<path fill="#000000" opacity="1.000000" stroke="none" 
	d="
M1558.468506,470.000000 
	C1558.303345,469.343170 1558.461670,468.247833 1558.930908,468.092682 
	C1579.312866,461.353302 1592.784912,447.826202 1599.268188,427.340485 
	C1599.393188,426.945679 1599.994141,426.701447 1600.686523,426.693481 
	C1601.000000,441.260040 1601.000000,455.520050 1601.000000,470.000000 
	C1586.979858,470.000000 1572.958496,470.000000 1558.468506,470.000000 
z"/>
<path fill="#000000" opacity="1.000000" stroke="none" 
	d="
M344.999878,460.436462 
	C249.842880,460.436188 155.185913,460.459930 60.528973,460.418884 
	C35.714840,460.408142 16.150398,444.211639 11.460980,419.897247 
	C10.898885,416.982788 10.855930,413.935730 10.855199,410.950104 
	C10.826586,294.128754 10.816630,177.307388 10.841177,60.486027 
	C10.847038,32.590889 32.543274,10.994680 60.609737,10.965992 
	C110.771210,10.914719 160.932770,10.951360 211.094299,10.951359 
	C654.048889,10.951353 1097.003418,10.950890 1539.958008,10.952616 
	C1565.842529,10.952717 1585.771973,26.918024 1590.509766,51.624325 
	C1591.161255,55.022331 1591.142700,58.581951 1591.143555,62.066826 
	C1591.173828,177.554993 1590.769897,293.045502 1591.446533,408.529694 
	C1591.617676,437.751312 1568.328125,460.688416 1539.375732,460.663849 
	C1141.417358,460.326324 743.458557,460.436249 344.999878,460.436462 
M345.687134,199.175278 
	C337.884491,194.842819 330.081848,190.510361 321.737396,185.697525 
	C270.827484,157.093796 219.923843,128.478836 169.000946,99.898224 
	C161.192337,95.515610 153.474854,90.908157 145.384628,87.108597 
	C138.250702,83.758163 130.918457,83.361168 124.175240,90.102997 
	C120.165787,94.775787 119.034050,100.342621 119.038986,106.305252 
	C119.060867,132.752060 119.026512,159.198929 119.058327,185.645706 
	C119.085732,208.428833 119.175110,231.211884 119.070084,254.919479 
	C119.125130,280.943390 119.180176,306.967285 119.068520,333.916443 
	C119.064156,344.814362 118.964203,355.713409 119.094627,366.609741 
	C119.162720,372.298920 120.324348,377.728455 125.116425,382.505066 
	C133.047562,389.360260 141.258331,387.192627 149.183868,382.814636 
	C168.792694,371.982910 188.260590,360.895966 207.783478,349.908752 
	C246.085327,328.352905 284.386078,306.795074 323.405029,284.951447 
	C331.318726,280.460632 339.232422,275.969849 347.832275,271.222473 
	C353.953613,267.805328 360.107117,264.444275 366.187500,260.955719 
	C372.643188,257.251831 379.383636,253.912140 385.366272,249.545547 
	C395.264923,242.320801 395.587769,231.528946 386.702759,223.283386 
	C385.017059,221.718994 383.124817,220.293304 381.123474,219.166733 
	C369.485504,212.615463 357.786469,206.172653 345.687134,199.175278 
M530.858582,321.689941 
	C507.573029,301.132172 504.170013,267.940491 522.770874,243.777527 
	C540.456543,220.803391 578.565002,213.250839 605.865479,237.517700 
	C610.649780,232.481567 615.450867,227.427780 620.419434,222.197708 
	C619.306763,221.222794 618.087158,220.108398 616.820190,219.050812 
	C598.797546,204.006638 578.138855,198.990860 554.988403,201.902786 
	C512.283142,207.274384 480.379669,249.431320 488.381256,291.552612 
	C494.012238,321.194855 511.924988,341.694611 540.229736,351.424225 
	C567.791809,360.898560 594.214600,357.719727 617.468567,338.404755 
	C637.018616,322.166168 643.370850,293.626892 638.693481,271.801788 
	C614.841797,271.801788 590.975281,271.801788 567.066345,271.801788 
	C567.066345,278.942078 567.066345,285.719299 567.066345,293.029663 
	C584.090027,293.029663 600.925415,293.029663 617.824341,293.029663 
	C616.053467,304.867035 612.147766,314.986328 602.825134,322.375763 
	C581.828369,339.018585 552.971252,338.952942 530.858582,321.689941 
M901.144592,353.414215 
	C916.783447,358.587006 931.153137,357.014954 943.624817,345.039093 
	C944.262817,365.382355 939.390198,375.364349 927.046326,379.405823 
	C912.567383,384.146332 902.215759,379.519226 891.360657,363.290405 
	C885.045349,365.909882 878.680054,368.550110 872.316101,371.189758 
	C881.512085,393.458466 904.263916,404.730316 929.513184,399.793640 
	C950.206421,395.747772 964.655029,377.618195 964.874390,354.529083 
	C965.168884,323.541718 965.017761,292.550079 965.040649,261.560272 
	C965.041260,260.791382 964.839661,260.022400 964.741516,259.318848 
	C957.638916,259.318848 950.866272,259.318848 943.786377,259.318848 
	C943.786377,261.941162 943.786377,264.325165 943.786377,267.260529 
	C932.514832,256.861053 919.842102,253.909805 905.700989,257.632843 
	C884.255188,263.279083 869.344177,281.964935 868.129700,304.410156 
	C867.008179,325.137787 880.157349,344.959778 901.144592,353.414215 
M1154.242065,315.499847 
	C1154.242065,327.932678 1154.242065,340.365509 1154.242065,352.767639 
	C1162.097656,352.767639 1169.340454,352.767639 1177.083740,352.767639 
	C1177.083740,334.258545 1177.083740,316.041138 1177.083740,297.744476 
	C1182.586548,297.744476 1187.591553,297.940277 1192.575684,297.702423 
	C1202.010742,297.252167 1211.718384,297.794128 1220.806152,295.712219 
	C1243.300049,290.559082 1257.708130,271.150940 1256.370117,249.731201 
	C1254.959229,227.146729 1237.970947,209.452438 1214.433350,207.120834 
	C1203.220459,206.010117 1191.855225,206.372925 1180.557007,206.210083 
	C1171.948730,206.086029 1163.337280,206.185455 1154.242065,206.185455 
	C1154.242065,242.639572 1154.242065,278.569702 1154.242065,315.499847 
M1366.421997,343.610382 
	C1366.698975,343.194641 1366.961548,342.767853 1367.266968,342.374268 
	C1367.316162,342.310913 1367.556030,342.395416 1368.170654,342.460754 
	C1368.170654,345.757355 1368.170654,349.135498 1368.170654,352.661926 
	C1375.669678,352.661926 1382.701904,352.661926 1389.875732,352.661926 
	C1389.875732,332.370361 1390.214722,312.394379 1389.732178,292.438263 
	C1389.492554,282.522247 1385.370850,273.726044 1377.604248,267.154846 
	C1363.910400,255.568451 1348.060059,253.831116 1331.241089,257.761841 
	C1319.469727,260.512909 1310.608154,267.199677 1305.129639,278.557739 
	C1311.884155,281.363068 1318.396729,284.067871 1324.814819,286.733521 
	C1332.179810,276.586578 1342.713379,273.463501 1354.454346,277.671967 
	C1363.730103,280.996857 1368.271240,286.905823 1367.791016,295.362366 
	C1366.047363,294.693604 1364.409546,293.996643 1362.727661,293.431152 
	C1346.865601,288.097778 1331.551880,289.366791 1317.263306,298.118378 
	C1301.876587,307.542511 1297.926514,327.518005 1308.222168,341.419708 
	C1321.292847,359.068359 1352.746826,361.652191 1366.421997,343.610382 
M790.493774,352.999817 
	C796.006897,354.041565 801.490479,355.773560 807.038086,356.011688 
	C839.895996,357.422241 865.148499,328.072266 858.461914,296.512665 
	C854.437073,277.515503 843.220398,264.624786 824.725830,258.796295 
	C805.518921,252.743256 787.833069,256.359650 772.992920,270.107635 
	C748.257141,293.022827 753.333069,338.631134 790.493774,352.999817 
M739.384033,335.855804 
	C745.157898,328.036591 748.267944,319.205811 748.837402,309.568481 
	C750.912903,274.444702 720.284241,251.895538 689.987061,256.877289 
	C659.130249,261.951111 640.268066,291.310760 649.727661,321.266296 
	C655.847473,340.646027 669.608032,352.136688 689.403687,355.371429 
	C709.242920,358.613312 726.140137,352.431610 739.384033,335.855804 
M1099.978760,296.403687 
	C1102.049438,295.494629 1104.120239,294.585541 1106.295044,293.630798 
	C1105.049927,290.579102 1104.046997,287.962067 1102.925781,285.396667 
	C1091.714966,259.744293 1064.549316,249.041550 1040.244873,260.684082 
	C1019.309814,270.712616 1008.406189,295.166046 1014.367676,318.718353 
	C1020.184143,341.697632 1040.515503,356.833954 1064.461182,356.157288 
	C1081.784668,355.667755 1095.061035,347.992462 1105.418945,333.911285 
	C1099.380005,329.933289 1093.764282,326.234070 1088.168335,322.547791 
	C1072.445679,343.898834 1045.531860,337.727234 1039.108765,321.297699 
	C1059.173950,313.129242 1079.240356,304.960297 1099.978760,296.403687 
M1459.991577,332.616577 
	C1470.747681,308.299072 1481.503784,283.981567 1492.440430,259.255890 
	C1483.649658,259.255890 1475.551636,259.255890 1467.436279,259.255890 
	C1458.973267,280.344208 1450.560303,301.307678 1441.890137,322.912292 
	C1441.050049,321.228638 1440.571289,320.402435 1440.211060,319.527374 
	C1432.402588,300.554321 1424.642944,281.560974 1416.737183,262.628601 
	C1416.150391,261.223694 1414.576538,259.283508 1413.390015,259.231689 
	C1406.153320,258.915466 1398.895630,259.073700 1391.179810,259.073700 
	C1391.749268,260.563263 1392.055054,261.490601 1392.450439,262.378082 
	C1404.572266,289.584412 1416.770874,316.757172 1428.704956,344.045502 
	C1429.674683,346.262848 1429.681396,349.629730 1428.717407,351.845276 
	C1422.775391,365.500916 1416.414551,378.973969 1410.228149,392.523834 
	C1409.525757,394.062134 1409.043213,395.700806 1408.322754,397.663239 
	C1415.115967,397.663239 1421.280518,397.475250 1427.425659,397.740417 
	C1430.630127,397.878662 1431.904663,396.688904 1433.158936,393.788788 
	C1441.898560,373.581787 1450.905762,353.490540 1459.991577,332.616577 
M1268.129028,231.499969 
	C1268.129028,271.930817 1268.129028,312.361694 1268.129028,352.769165 
	C1275.982300,352.769165 1283.225464,352.769165 1290.399414,352.769165 
	C1290.399414,303.767700 1290.399414,255.066498 1290.399414,206.419830 
	C1282.867920,206.419830 1275.753296,206.419830 1268.129028,206.419830 
	C1268.129028,214.601440 1268.129028,222.550705 1268.129028,231.499969 
M1002.687317,272.500183 
	C1002.687317,250.556305 1002.687317,228.612427 1002.687317,206.451477 
	C994.931641,206.451477 987.707153,206.451477 980.382812,206.451477 
	C980.382812,255.427856 980.382812,304.131226 980.382812,352.729309 
	C987.929138,352.729309 995.160400,352.729309 1002.687317,352.729309 
	C1002.687317,326.094086 1002.687317,299.797180 1002.687317,272.500183 
M551.305298,94.497665 
	C548.473022,89.031464 543.628723,85.648727 537.893494,85.227867 
	C523.401367,84.164429 508.846771,83.953056 494.359619,83.401924 
	C494.359619,107.604118 494.359619,130.772018 494.359619,153.979797 
	C507.364716,153.979797 520.015991,154.261917 532.643494,153.837143 
	C537.509583,153.673462 542.578674,152.538986 547.097168,150.713089 
	C553.619507,148.077393 556.909912,142.752960 557.061707,135.436859 
	C557.239014,126.890854 552.816528,121.516678 545.494202,117.857681 
	C553.036987,111.509056 554.641907,103.935928 551.305298,94.497665 
M901.998474,85.716446 
	C901.235657,85.144104 900.496826,84.119431 899.705933,84.077629 
	C896.261902,83.895538 892.802795,83.999405 888.813843,83.999405 
	C888.813843,99.582558 888.813843,114.750237 888.813843,130.866928 
	C877.283508,116.957733 866.096558,104.163948 855.783203,90.700996 
	C851.203674,84.723015 846.324097,82.634575 839.215576,84.455269 
	C839.215576,107.497299 839.215576,130.572052 839.215576,153.782791 
	C843.507202,153.782791 847.578918,153.782791 852.200134,153.782791 
	C852.200134,138.405197 852.200134,123.238686 852.200134,107.145699 
	C863.722412,121.046432 874.911377,133.844299 885.227356,147.310913 
	C889.809021,153.291855 894.692749,155.360657 902.002136,153.477402 
	C902.002136,131.272629 902.002136,108.977615 901.998474,85.716446 
M915.021851,116.675285 
	C915.560425,121.266487 915.426147,126.063713 916.757568,130.412155 
	C921.720398,146.620773 936.102600,155.486649 955.699524,154.986679 
	C980.688660,154.349136 997.216064,130.686600 989.182251,107.048981 
	C983.235229,89.551285 964.307251,79.537796 944.846680,83.594162 
	C927.473022,87.215546 916.556519,98.992859 915.021851,116.675285 
M764.558899,94.981918 
	C774.675293,94.981918 784.791626,94.981918 795.031738,94.981918 
	C795.031738,91.119156 795.031738,87.715973 795.031738,84.218773 
	C777.946228,84.218773 761.079346,84.218773 744.228088,84.218773 
	C744.228088,107.598129 744.228088,130.673218 744.228088,153.723969 
	C761.822266,153.723969 779.183594,153.723969 796.415039,153.723969 
	C796.415039,149.961288 796.415039,146.569687 796.415039,142.846786 
	C783.128967,142.846786 770.203918,142.846786 757.224243,142.846786 
	C757.224243,136.420059 757.224243,130.338364 757.224243,123.812675 
	C768.500916,123.812675 779.564453,123.812675 790.651245,123.812675 
	C790.651245,119.970184 790.651245,116.583580 790.651245,112.786606 
	C779.280396,112.786606 768.213196,112.786606 757.313965,112.786606 
	C757.313965,106.619026 757.313965,100.878105 757.313965,94.981918 
	C759.608093,94.981918 761.591431,94.981918 764.558899,94.981918 
M618.995300,146.614258 
	C620.061707,149.041656 621.128174,151.469055 622.141724,153.776123 
	C626.791626,153.776123 631.203918,153.776123 636.073792,153.776123 
	C627.026672,133.783020 618.142944,114.156792 609.264282,94.528267 
	C604.234741,83.409233 604.238525,83.407112 591.936218,84.115494 
	C591.773865,84.124840 591.615479,84.201698 591.231323,84.310402 
	C580.883728,107.281548 570.474854,130.388809 560.015625,153.607803 
	C573.145691,155.033508 573.145569,155.033463 578.052002,143.593674 
	C578.444519,142.678314 578.608643,141.503296 579.283386,140.905304 
	C580.569458,139.765472 582.119934,138.190582 583.609192,138.136597 
	C591.260254,137.859253 598.983765,138.585922 606.570740,137.836090 
	C613.371948,137.163910 617.178772,139.406540 618.995300,146.614258 
M710.149719,98.633606 
	C707.886841,101.817451 705.623962,105.001289 703.086426,108.571510 
	C697.521790,100.876572 692.425049,93.712044 687.164612,86.669800 
	C686.293274,85.503349 684.759399,84.221153 683.440247,84.113548 
	C679.371399,83.781647 675.258240,83.992455 670.253052,83.992455 
	C678.765442,95.879700 686.754211,107.035797 694.824463,118.305687 
	C686.259155,130.074768 677.797058,141.702011 668.840088,154.009262 
	C672.610474,154.009262 675.581604,153.716461 678.470520,154.078949 
	C682.639709,154.602066 685.097107,152.986221 687.360046,149.500000 
	C692.113770,142.176590 697.380310,135.186050 702.669006,127.730888 
	C708.461914,135.797104 713.940247,143.523331 719.558472,151.146515 
	C720.438232,152.340134 721.895935,153.772156 723.185608,153.877457 
	C727.414856,154.222702 731.689819,154.007156 736.894531,154.007156 
	C727.792786,141.459229 719.254211,129.687637 710.628906,117.796501 
	C718.716003,106.625137 726.666016,95.643234 734.744324,84.483971 
	C725.747192,82.770332 718.245056,83.351387 714.272522,92.738274 
	C713.447998,94.686531 711.846741,96.306038 710.149719,98.633606 
M657.943115,153.259705 
	C657.943115,130.306656 657.943115,107.353615 657.943115,84.201653 
	C653.538574,84.201653 649.467712,84.201653 645.202271,84.201653 
	C645.202271,107.468239 645.202271,130.539963 645.202271,153.941498 
	C649.349731,153.941498 653.306335,153.941498 657.943115,153.259705 
z"/>
<path fill="#FBFBFB" opacity="1.000000" stroke="none" 
	d="
M531.138916,321.912140 
	C552.971252,338.952942 581.828369,339.018585 602.825134,322.375763 
	C612.147766,314.986328 616.053467,304.867035 617.824341,293.029663 
	C600.925415,293.029663 584.090027,293.029663 567.066345,293.029663 
	C567.066345,285.719299 567.066345,278.942078 567.066345,271.801788 
	C590.975281,271.801788 614.841797,271.801788 638.693481,271.801788 
	C643.370850,293.626892 637.018616,322.166168 617.468567,338.404755 
	C594.214600,357.719727 567.791809,360.898560 540.229736,351.424225 
	C511.924988,341.694611 494.012238,321.194855 488.381256,291.552612 
	C480.379669,249.431320 512.283142,207.274384 554.988403,201.902786 
	C578.138855,198.990860 598.797546,204.006638 616.820190,219.050812 
	C618.087158,220.108398 619.306763,221.222794 620.419434,222.197708 
	C615.450867,227.427780 610.649780,232.481567 605.865479,237.517700 
	C578.565002,213.250839 540.456543,220.803391 522.770874,243.777527 
	C504.170013,267.940491 507.573029,301.132172 531.138916,321.912140 
z"/>
<path fill="#FD3A44" opacity="1.000000" stroke="none" 
	d="
M322.687286,285.238098 
	C284.386078,306.795074 246.085327,328.352905 207.783478,349.908752 
	C188.260590,360.895966 168.792694,371.982910 149.183868,382.814636 
	C141.258331,387.192627 133.047562,389.360260 125.074402,381.896912 
	C145.891663,360.689423 166.771606,340.110962 187.605179,319.485626 
	C215.775497,291.596863 243.910233,263.672119 272.235321,235.779510 
	C272.410431,235.796188 272.762115,235.789017 272.954468,236.084808 
	C287.011536,249.961807 300.876282,263.542999 314.916534,277.412994 
	C317.623779,280.213898 320.155518,282.726013 322.687286,285.238098 
z"/>
<path fill="#00EF76" opacity="1.000000" stroke="none" 
	d="
M272.762115,235.789017 
	C272.762115,235.789017 272.410431,235.796188 272.046387,235.517883 
	C262.190887,226.019012 252.699463,216.798462 243.089417,207.275543 
	C230.038513,194.282806 217.106232,181.592422 204.006119,168.611023 
	C194.790527,159.299561 185.758163,150.263565 176.691650,141.261993 
	C159.390930,124.085136 142.070755,106.927910 124.758652,89.762535 
	C130.918457,83.361168 138.250702,83.758163 145.384628,87.108597 
	C153.474854,90.908157 161.192337,95.515610 169.000946,99.898224 
	C219.923843,128.478836 270.827484,157.093796 321.861908,186.231903 
	C320.656036,188.177277 319.325653,189.588287 317.670654,191.087906 
	C302.484711,206.047348 287.623413,220.918182 272.762115,235.789017 
z"/>
<path fill="#00D3FF" opacity="1.000000" stroke="none" 
	d="
M204.173935,168.902054 
	C217.106232,181.592422 230.038513,194.282806 242.933945,207.638046 
	C241.948868,210.017258 241.337494,212.071548 240.001907,213.394989 
	C219.703323,233.508865 199.155182,253.372833 178.983337,273.612091 
	C159.763901,292.895752 140.921967,312.555511 121.864281,332.001099 
	C121.269951,332.607513 120.124008,332.673340 119.235222,332.991180 
	C119.180176,306.967285 119.125130,280.943390 119.511459,254.446091 
	C120.798073,253.304871 121.834824,252.779221 122.454720,251.944107 
	C124.878960,248.678223 126.745857,244.887848 129.583282,242.057816 
	C145.670685,226.012421 161.976242,210.185730 178.212418,194.289566 
	C186.861191,185.821869 195.519775,177.364227 204.173935,168.902054 
z"/>
<path fill="#FCFCFC" opacity="1.000000" stroke="none" 
	d="
M900.785278,353.254883 
	C880.157349,344.959778 867.008179,325.137787 868.129700,304.410156 
	C869.344177,281.964935 884.255188,263.279083 905.700989,257.632843 
	C919.842102,253.909805 932.514832,256.861053 943.786377,267.260529 
	C943.786377,264.325165 943.786377,261.941162 943.786377,259.318848 
	C950.866272,259.318848 957.638916,259.318848 964.741516,259.318848 
	C964.839661,260.022400 965.041260,260.791382 965.040649,261.560272 
	C965.017761,292.550079 965.168884,323.541718 964.874390,354.529083 
	C964.655029,377.618195 950.206421,395.747772 929.513184,399.793640 
	C904.263916,404.730316 881.512085,393.458466 872.316101,371.189758 
	C878.680054,368.550110 885.045349,365.909882 891.360657,363.290405 
	C902.215759,379.519226 912.567383,384.146332 927.046326,379.405823 
	C939.390198,375.364349 944.262817,365.382355 943.624817,345.039093 
	C931.153137,357.014954 916.783447,358.587006 900.785278,353.254883 
M900.430908,329.117920 
	C907.341248,335.288300 915.405457,337.578400 924.377441,335.435883 
	C942.047180,331.216461 950.637817,310.168579 942.305908,291.996368 
	C934.711304,275.432190 915.298157,270.970093 901.285400,282.567810 
	C887.849060,293.688385 887.199524,315.264771 900.430908,329.117920 
z"/>
<path fill="#01C6FE" opacity="1.000000" stroke="none" 
	d="
M119.151871,333.453796 
	C120.124008,332.673340 121.269951,332.607513 121.864281,332.001099 
	C140.921967,312.555511 159.763901,292.895752 178.983337,273.612091 
	C199.155182,253.372833 219.703323,233.508865 240.001907,213.394989 
	C241.337494,212.071548 241.948868,210.017258 243.052567,207.940399 
	C252.699463,216.798462 262.190887,226.019012 271.871277,235.501190 
	C243.910233,263.672119 215.775497,291.596863 187.605179,319.485626 
	C166.771606,340.110962 145.891663,360.689423 124.873520,381.592987 
	C120.324348,377.728455 119.162720,372.298920 119.094627,366.609741 
	C118.964203,355.713409 119.064156,344.814362 119.151871,333.453796 
z"/>
<path fill="#FAFAFA" opacity="1.000000" stroke="none" 
	d="
M1154.242065,314.999817 
	C1154.242065,278.569702 1154.242065,242.639572 1154.242065,206.185455 
	C1163.337280,206.185455 1171.948730,206.086029 1180.557007,206.210083 
	C1191.855225,206.372925 1203.220459,206.010117 1214.433350,207.120834 
	C1237.970947,209.452438 1254.959229,227.146729 1256.370117,249.731201 
	C1257.708130,271.150940 1243.300049,290.559082 1220.806152,295.712219 
	C1211.718384,297.794128 1202.010742,297.252167 1192.575684,297.702423 
	C1187.591553,297.940277 1182.586548,297.744476 1177.083740,297.744476 
	C1177.083740,316.041138 1177.083740,334.258545 1177.083740,352.767639 
	C1169.340454,352.767639 1162.097656,352.767639 1154.242065,352.767639 
	C1154.242065,340.365509 1154.242065,327.932678 1154.242065,314.999817 
M1176.894043,258.499573 
	C1176.894043,264.585754 1176.894043,270.671936 1176.894043,276.970520 
	C1188.380371,276.970520 1199.341919,277.368958 1210.261597,276.865204 
	C1222.678833,276.292358 1233.092529,265.618866 1233.989868,253.489807 
	C1234.864258,241.672058 1226.163696,229.471542 1213.622192,228.040329 
	C1201.579590,226.666046 1189.257202,227.743362 1177.031128,227.743362 
	C1177.002075,227.935989 1176.912354,228.255188 1176.911987,228.574478 
	C1176.900635,238.216202 1176.897949,247.857910 1176.894043,258.499573 
z"/>
<path fill="#00DFFF" opacity="1.000000" stroke="none" 
	d="
M204.006119,168.611023 
	C195.519775,177.364227 186.861191,185.821869 178.212418,194.289566 
	C161.976242,210.185730 145.670685,226.012421 129.583282,242.057816 
	C126.745857,244.887848 124.878960,248.678223 122.454720,251.944107 
	C121.834824,252.779221 120.798073,253.304871 119.594955,253.983826 
	C119.175110,231.211884 119.085732,208.428833 119.058327,185.645706 
	C119.026512,159.198929 119.060867,132.752060 119.038986,106.305252 
	C119.034050,100.342621 120.165787,94.775787 124.466949,89.932770 
	C142.070755,106.927910 159.390930,124.085136 176.691650,141.261993 
	C185.758163,150.263565 194.790527,159.299561 204.006119,168.611023 
z"/>
<path fill="#FCFCFC" opacity="1.000000" stroke="none" 
	d="
M1366.187378,343.911072 
	C1352.746826,361.652191 1321.292847,359.068359 1308.222168,341.419708 
	C1297.926514,327.518005 1301.876587,307.542511 1317.263306,298.118378 
	C1331.551880,289.366791 1346.865601,288.097778 1362.727661,293.431152 
	C1364.409546,293.996643 1366.047363,294.693604 1367.791016,295.362366 
	C1368.271240,286.905823 1363.730103,280.996857 1354.454346,277.671967 
	C1342.713379,273.463501 1332.179810,276.586578 1324.814819,286.733521 
	C1318.396729,284.067871 1311.884155,281.363068 1305.129639,278.557739 
	C1310.608154,267.199677 1319.469727,260.512909 1331.241089,257.761841 
	C1348.060059,253.831116 1363.910400,255.568451 1377.604248,267.154846 
	C1385.370850,273.726044 1389.492554,282.522247 1389.732178,292.438263 
	C1390.214722,312.394379 1389.875732,332.370361 1389.875732,352.661926 
	C1382.701904,352.661926 1375.669678,352.661926 1368.170654,352.661926 
	C1368.170654,349.135498 1368.170654,345.757355 1368.170654,342.460754 
	C1367.556030,342.395416 1367.316162,342.310913 1367.266968,342.374268 
	C1366.961548,342.767853 1366.698975,343.194641 1366.187378,343.911072 
M1357.018799,309.085938 
	C1348.516968,308.179871 1340.067627,307.851440 1332.237915,312.169220 
	C1327.308105,314.887878 1324.562500,319.120178 1325.043579,324.800171 
	C1325.531860,330.563507 1329.739624,333.370667 1334.706543,334.986572 
	C1345.540405,338.511261 1357.913086,333.837158 1364.308350,324.004852 
	C1370.374146,314.679169 1369.549194,312.557587 1358.751953,309.695496 
	C1358.434082,309.611237 1358.138306,309.444458 1357.018799,309.085938 
z"/>
<path fill="#FCFCFC" opacity="1.000000" stroke="none" 
	d="
M790.111206,352.926239 
	C753.333069,338.631134 748.257141,293.022827 772.992920,270.107635 
	C787.833069,256.359650 805.518921,252.743256 824.725830,258.796295 
	C843.220398,264.624786 854.437073,277.515503 858.461914,296.512665 
	C865.148499,328.072266 839.895996,357.422241 807.038086,356.011688 
	C801.490479,355.773560 796.006897,354.041565 790.111206,352.926239 
M804.952881,336.022430 
	C821.699768,337.813446 834.613098,326.016724 836.687744,309.950226 
	C838.420959,296.527618 831.296997,283.428619 819.237183,278.307526 
	C807.805603,273.453186 794.200378,276.822357 786.613708,286.860016 
	C773.722107,303.916534 780.817322,331.585083 804.952881,336.022430 
z"/>
<path fill="#FCFCFC" opacity="1.000000" stroke="none" 
	d="
M739.166748,336.140442 
	C726.140137,352.431610 709.242920,358.613312 689.403687,355.371429 
	C669.608032,352.136688 655.847473,340.646027 649.727661,321.266296 
	C640.268066,291.310760 659.130249,261.951111 689.987061,256.877289 
	C720.284241,251.895538 750.912903,274.444702 748.837402,309.568481 
	C748.267944,319.205811 745.157898,328.036591 739.166748,336.140442 
M678.438354,328.047760 
	C685.756226,334.819855 694.290833,337.718781 704.114563,335.458038 
	C719.339355,331.954315 728.289429,318.124481 725.972534,301.246338 
	C724.350037,289.426361 717.801758,281.095764 706.237427,277.371613 
	C695.275391,273.841370 683.917480,277.598175 676.379272,286.707184 
	C668.214844,296.572815 666.757385,315.414703 678.438354,328.047760 
z"/>
<path fill="#FBFBFB" opacity="1.000000" stroke="none" 
	d="
M1099.642822,296.597504 
	C1079.240356,304.960297 1059.173950,313.129242 1039.108765,321.297699 
	C1045.531860,337.727234 1072.445679,343.898834 1088.168335,322.547791 
	C1093.764282,326.234070 1099.380005,329.933289 1105.418945,333.911285 
	C1095.061035,347.992462 1081.784668,355.667755 1064.461182,356.157288 
	C1040.515503,356.833954 1020.184143,341.697632 1014.367676,318.718353 
	C1008.406189,295.166046 1019.309814,270.712616 1040.244873,260.684082 
	C1064.549316,249.041550 1091.714966,259.744293 1102.925781,285.396667 
	C1104.046997,287.962067 1105.049927,290.579102 1106.295044,293.630798 
	C1104.120239,294.585541 1102.049438,295.494629 1099.642822,296.597504 
M1047.061890,299.647797 
	C1057.977295,295.099609 1068.892578,290.551422 1079.871216,285.976898 
	C1074.851807,277.596649 1065.293945,273.917053 1055.986206,276.443787 
	C1043.258789,279.898865 1035.288086,290.475769 1035.333008,304.193848 
	C1039.083008,302.765259 1042.725586,301.377594 1047.061890,299.647797 
z"/>
<path fill="#FBFBFB" opacity="1.000000" stroke="none" 
	d="
M1459.909424,332.989380 
	C1450.905762,353.490540 1441.898560,373.581787 1433.158936,393.788788 
	C1431.904663,396.688904 1430.630127,397.878662 1427.425659,397.740417 
	C1421.280518,397.475250 1415.115967,397.663239 1408.322754,397.663239 
	C1409.043213,395.700806 1409.525757,394.062134 1410.228149,392.523834 
	C1416.414551,378.973969 1422.775391,365.500916 1428.717407,351.845276 
	C1429.681396,349.629730 1429.674683,346.262848 1428.704956,344.045502 
	C1416.770874,316.757172 1404.572266,289.584412 1392.450439,262.378082 
	C1392.055054,261.490601 1391.749268,260.563263 1391.179810,259.073700 
	C1398.895630,259.073700 1406.153320,258.915466 1413.390015,259.231689 
	C1414.576538,259.283508 1416.150391,261.223694 1416.737183,262.628601 
	C1424.642944,281.560974 1432.402588,300.554321 1440.211060,319.527374 
	C1440.571289,320.402435 1441.050049,321.228638 1441.890137,322.912292 
	C1450.560303,301.307678 1458.973267,280.344208 1467.436279,259.255890 
	C1475.551636,259.255890 1483.649658,259.255890 1492.440430,259.255890 
	C1481.503784,283.981567 1470.747681,308.299072 1459.909424,332.989380 
z"/>
<path fill="#F9F9F9" opacity="1.000000" stroke="none" 
	d="
M1268.129028,230.999969 
	C1268.129028,222.550705 1268.129028,214.601440 1268.129028,206.419830 
	C1275.753296,206.419830 1282.867920,206.419830 1290.399414,206.419830 
	C1290.399414,255.066498 1290.399414,303.767700 1290.399414,352.769165 
	C1283.225464,352.769165 1275.982300,352.769165 1268.129028,352.769165 
	C1268.129028,312.361694 1268.129028,271.930817 1268.129028,230.999969 
z"/>
<path fill="#F8F8F8" opacity="1.000000" stroke="none" 
	d="
M1002.687317,273.000214 
	C1002.687317,299.797180 1002.687317,326.094086 1002.687317,352.729309 
	C995.160400,352.729309 987.929138,352.729309 980.382812,352.729309 
	C980.382812,304.131226 980.382812,255.427856 980.382812,206.451477 
	C987.707153,206.451477 994.931641,206.451477 1002.687317,206.451477 
	C1002.687317,228.612427 1002.687317,250.556305 1002.687317,273.000214 
z"/>
<path fill="#FDFDFD" opacity="1.000000" stroke="none" 
	d="
M551.506531,94.836639 
	C554.641907,103.935928 553.036987,111.509056 545.494202,117.857681 
	C552.816528,121.516678 557.239014,126.890854 557.061707,135.436859 
	C556.909912,142.752960 553.619507,148.077393 547.097168,150.713089 
	C542.578674,152.538986 537.509583,153.673462 532.643494,153.837143 
	C520.015991,154.261917 507.364716,153.979797 494.359619,153.979797 
	C494.359619,130.772018 494.359619,107.604118 494.359619,83.401924 
	C508.846771,83.953056 523.401367,84.164429 537.893494,85.227867 
	C543.628723,85.648727 548.473022,89.031464 551.506531,94.836639 
M530.137573,124.102448 
	C522.534119,124.102448 514.930725,124.102448 507.198456,124.102448 
	C507.198456,130.699234 507.198456,136.945999 507.198456,143.529831 
	C515.175232,143.529831 522.955566,143.619919 530.731506,143.474045 
	C533.016907,143.431152 535.336609,142.889175 537.558472,142.277771 
	C541.792480,141.112671 543.894470,138.058640 543.896423,133.788742 
	C543.898438,129.445923 541.461975,126.611908 537.400513,125.346054 
	C535.356262,124.708908 533.169128,124.530449 530.137573,124.102448 
M535.084595,96.138100 
	C525.817810,95.285355 516.551025,94.432617 507.254486,93.577141 
	C507.254486,101.261055 507.254486,107.499161 507.254486,114.384583 
	C515.610168,113.969955 523.696960,113.754860 531.746460,113.088799 
	C535.630615,112.767395 538.570679,110.507652 539.564148,106.470650 
	C540.582886,102.330505 539.347473,98.961037 535.084595,96.138100 
z"/>
<path fill="#FECB00" opacity="1.000000" stroke="none" 
	d="
M317.995300,190.999298 
	C319.325653,189.588287 320.656036,188.177277 322.132812,186.472092 
	C330.081848,190.510361 337.884491,194.842819 345.898376,199.842560 
	C346.739471,202.889404 347.927002,205.272507 347.911926,207.647980 
	C347.777039,228.925766 347.430420,250.202194 347.146118,271.479065 
	C339.232422,275.969849 331.318726,280.460632 323.046143,285.094788 
	C320.155518,282.726013 317.623779,280.213898 315.257690,277.184998 
	C315.948914,274.306946 316.896057,271.952606 316.935333,269.583252 
	C317.369873,243.389938 317.663544,217.194305 317.995300,190.999298 
z"/>
<path fill="#FDFDFD" opacity="1.000000" stroke="none" 
	d="
M902.000305,86.199524 
	C902.002136,108.977615 902.002136,131.272629 902.002136,153.477402 
	C894.692749,155.360657 889.809021,153.291855 885.227356,147.310913 
	C874.911377,133.844299 863.722412,121.046432 852.200134,107.145699 
	C852.200134,123.238686 852.200134,138.405197 852.200134,153.782791 
	C847.578918,153.782791 843.507202,153.782791 839.215576,153.782791 
	C839.215576,130.572052 839.215576,107.497299 839.215576,84.455269 
	C846.324097,82.634575 851.203674,84.723015 855.783203,90.700996 
	C866.096558,104.163948 877.283508,116.957733 888.813843,130.866928 
	C888.813843,114.750237 888.813843,99.582558 888.813843,83.999405 
	C892.802795,83.999405 896.261902,83.895538 899.705933,84.077629 
	C900.496826,84.119431 901.235657,85.144104 902.000305,86.199524 
z"/>
<path fill="#F9F9F9" opacity="1.000000" stroke="none" 
	d="
M915.030518,116.213638 
	C916.556519,98.992859 927.473022,87.215546 944.846680,83.594162 
	C964.307251,79.537796 983.235229,89.551285 989.182251,107.048981 
	C997.216064,130.686600 980.688660,154.349136 955.699524,154.986679 
	C936.102600,155.486649 921.720398,146.620773 916.757568,130.412155 
	C915.426147,126.063713 915.560425,121.266487 915.030518,116.213638 
M930.120667,129.052444 
	C935.224426,139.598724 943.864502,143.865707 955.272339,143.212128 
	C967.462402,142.513748 976.347107,133.868622 977.810852,121.286102 
	C979.122131,110.014519 972.191162,99.132309 961.199036,95.933487 
	C951.455444,93.097977 942.226135,94.375931 934.929260,101.930656 
	C927.656250,109.460747 926.488342,118.536163 930.120667,129.052444 
z"/>
<path fill="#FDFDFD" opacity="1.000000" stroke="none" 
	d="
M764.066772,94.981918 
	C761.591431,94.981918 759.608093,94.981918 757.313965,94.981918 
	C757.313965,100.878105 757.313965,106.619026 757.313965,112.786606 
	C768.213196,112.786606 779.280396,112.786606 790.651245,112.786606 
	C790.651245,116.583580 790.651245,119.970184 790.651245,123.812675 
	C779.564453,123.812675 768.500916,123.812675 757.224243,123.812675 
	C757.224243,130.338364 757.224243,136.420059 757.224243,142.846786 
	C770.203918,142.846786 783.128967,142.846786 796.415039,142.846786 
	C796.415039,146.569687 796.415039,149.961288 796.415039,153.723969 
	C779.183594,153.723969 761.822266,153.723969 744.228088,153.723969 
	C744.228088,130.673218 744.228088,107.598129 744.228088,84.218773 
	C761.079346,84.218773 777.946228,84.218773 795.031738,84.218773 
	C795.031738,87.715973 795.031738,91.119156 795.031738,94.981918 
	C784.791626,94.981918 774.675293,94.981918 764.066772,94.981918 
z"/>
<path fill="#FAFAFA" opacity="1.000000" stroke="none" 
	d="
M618.848755,146.256027 
	C617.178772,139.406540 613.371948,137.163910 606.570740,137.836090 
	C598.983765,138.585922 591.260254,137.859253 583.609192,138.136597 
	C582.119934,138.190582 580.569458,139.765472 579.283386,140.905304 
	C578.608643,141.503296 578.444519,142.678314 578.052002,143.593674 
	C573.145569,155.033463 573.145691,155.033508 560.015625,153.607803 
	C570.474854,130.388809 580.883728,107.281548 591.231323,84.310402 
	C591.615479,84.201698 591.773865,84.124840 591.936218,84.115494 
	C604.238525,83.407112 604.234741,83.409233 609.264282,94.528267 
	C618.142944,114.156792 627.026672,133.783020 636.073792,153.776123 
	C631.203918,153.776123 626.791626,153.776123 622.141724,153.776123 
	C621.128174,151.469055 620.061707,149.041656 618.848755,146.256027 
M606.058655,116.432365 
	C603.450500,110.425499 600.842346,104.418625 597.805359,97.423988 
	C593.273621,108.123322 589.202026,117.736275 585.083435,127.460114 
	C593.796875,127.460114 601.869507,127.460114 610.690063,127.460114 
	C609.101379,123.731697 607.701599,120.446640 606.058655,116.432365 
z"/>
<path fill="#FAFAFA" opacity="1.000000" stroke="none" 
	d="
M710.376587,98.355331 
	C711.846741,96.306038 713.447998,94.686531 714.272522,92.738274 
	C718.245056,83.351387 725.747192,82.770332 734.744324,84.483971 
	C726.666016,95.643234 718.716003,106.625137 710.628906,117.796501 
	C719.254211,129.687637 727.792786,141.459229 736.894531,154.007156 
	C731.689819,154.007156 727.414856,154.222702 723.185608,153.877457 
	C721.895935,153.772156 720.438232,152.340134 719.558472,151.146515 
	C713.940247,143.523331 708.461914,135.797104 702.669006,127.730888 
	C697.380310,135.186050 692.113770,142.176590 687.360046,149.500000 
	C685.097107,152.986221 682.639709,154.602066 678.470520,154.078949 
	C675.581604,153.716461 672.610474,154.009262 668.840088,154.009262 
	C677.797058,141.702011 686.259155,130.074768 694.824463,118.305687 
	C686.754211,107.035797 678.765442,95.879700 670.253052,83.992455 
	C675.258240,83.992455 679.371399,83.781647 683.440247,84.113548 
	C684.759399,84.221153 686.293274,85.503349 687.164612,86.669800 
	C692.425049,93.712044 697.521790,100.876572 703.086426,108.571510 
	C705.623962,105.001289 707.886841,101.817451 710.376587,98.355331 
z"/>
<path fill="#FDD400" opacity="1.000000" stroke="none" 
	d="
M347.489197,271.350769 
	C347.430420,250.202194 347.777039,228.925766 347.911926,207.647980 
	C347.927002,205.272507 346.739471,202.889404 346.108887,200.101501 
	C357.786469,206.172653 369.485504,212.615463 381.123474,219.166733 
	C383.124817,220.293304 385.017059,221.718994 386.702759,223.283386 
	C395.587769,231.528946 395.264923,242.320801 385.366272,249.545547 
	C379.383636,253.912140 372.643188,257.251831 366.187500,260.955719 
	C360.107117,264.444275 353.953613,267.805328 347.489197,271.350769 
z"/>
<path fill="#FFFFFF" opacity="1.000000" stroke="none" 
	d="
M657.603027,153.600601 
	C653.306335,153.941498 649.349731,153.941498 645.202271,153.941498 
	C645.202271,130.539963 645.202271,107.468239 645.202271,84.201653 
	C649.467712,84.201653 653.538574,84.201653 657.943115,84.201653 
	C657.943115,107.353615 657.943115,130.306656 657.603027,153.600601 
z"/>
<path fill="#FFC201" opacity="1.000000" stroke="none" 
	d="
M317.670654,191.087921 
	C317.663544,217.194305 317.369873,243.389938 316.935333,269.583252 
	C316.896057,271.952606 315.948914,274.306946 315.082184,276.896240 
	C300.876282,263.542999 287.011536,249.961807 272.954468,236.084808 
	C287.623413,220.918182 302.484711,206.047348 317.670654,191.087921 
z"/>
<path fill="#010101" opacity="1.000000" stroke="none" 
	d="
M900.164734,328.875366 
	C887.199524,315.264771 887.849060,293.688385 901.285400,282.567810 
	C915.298157,270.970093 934.711304,275.432190 942.305908,291.996368 
	C950.637817,310.168579 942.047180,331.216461 924.377441,335.435883 
	C915.405457,337.578400 907.341248,335.288300 900.164734,328.875366 
z"/>
<path fill="#000000" opacity="1.000000" stroke="none" 
	d="
M1176.894043,257.999603 
	C1176.897949,247.857910 1176.900635,238.216202 1176.911987,228.574478 
	C1176.912354,228.255188 1177.002075,227.935989 1177.031128,227.743362 
	C1189.257202,227.743362 1201.579590,226.666046 1213.622192,228.040329 
	C1226.163696,229.471542 1234.864258,241.672058 1233.989868,253.489807 
	C1233.092529,265.618866 1222.678833,276.292358 1210.261597,276.865204 
	C1199.341919,277.368958 1188.380371,276.970520 1176.894043,276.970520 
	C1176.894043,270.671936 1176.894043,264.585754 1176.894043,257.999603 
z"/>
<path fill="#030303" opacity="1.000000" stroke="none" 
	d="
M1357.425537,309.201050 
	C1358.138306,309.444458 1358.434082,309.611237 1358.751953,309.695496 
	C1369.549194,312.557587 1370.374146,314.679169 1364.308350,324.004852 
	C1357.913086,333.837158 1345.540405,338.511261 1334.706543,334.986572 
	C1329.739624,333.370667 1325.531860,330.563507 1325.043579,324.800171 
	C1324.562500,319.120178 1327.308105,314.887878 1332.237915,312.169220 
	C1340.067627,307.851440 1348.516968,308.179871 1357.425537,309.201050 
z"/>
<path fill="#020202" opacity="1.000000" stroke="none" 
	d="
M804.519104,335.977417 
	C780.817322,331.585083 773.722107,303.916534 786.613708,286.860016 
	C794.200378,276.822357 807.805603,273.453186 819.237183,278.307526 
	C831.296997,283.428619 838.420959,296.527618 836.687744,309.950226 
	C834.613098,326.016724 821.699768,337.813446 804.519104,335.977417 
z"/>
<path fill="#010101" opacity="1.000000" stroke="none" 
	d="
M678.195068,327.784729 
	C666.757385,315.414703 668.214844,296.572815 676.379272,286.707184 
	C683.917480,277.598175 695.275391,273.841370 706.237427,277.371613 
	C717.801758,281.095764 724.350037,289.426361 725.972534,301.246338 
	C728.289429,318.124481 719.339355,331.954315 704.114563,335.458038 
	C694.290833,337.718781 685.756226,334.819855 678.195068,327.784729 
z"/>
<path fill="#030303" opacity="1.000000" stroke="none" 
	d="
M1046.715088,299.818848 
	C1042.725586,301.377594 1039.083008,302.765259 1035.333008,304.193848 
	C1035.288086,290.475769 1043.258789,279.898865 1055.986206,276.443787 
	C1065.293945,273.917053 1074.851807,277.596649 1079.871216,285.976898 
	C1068.892578,290.551422 1057.977295,295.099609 1046.715088,299.818848 
z"/>
<path fill="#050505" opacity="1.000000" stroke="none" 
	d="
M530.592041,124.123505 
	C533.169128,124.530449 535.356262,124.708908 537.400513,125.346054 
	C541.461975,126.611908 543.898438,129.445923 543.896423,133.788742 
	C543.894470,138.058640 541.792480,141.112671 537.558472,142.277771 
	C535.336609,142.889175 533.016907,143.431152 530.731506,143.474045 
	C522.955566,143.619919 515.175232,143.529831 507.198456,143.529831 
	C507.198456,136.945999 507.198456,130.699234 507.198456,124.102448 
	C514.930725,124.102448 522.534119,124.102448 530.592041,124.123505 
z"/>
<path fill="#050505" opacity="1.000000" stroke="none" 
	d="
M535.412476,96.346817 
	C539.347473,98.961037 540.582886,102.330505 539.564148,106.470650 
	C538.570679,110.507652 535.630615,112.767395 531.746460,113.088799 
	C523.696960,113.754860 515.610168,113.969955 507.254486,114.384583 
	C507.254486,107.499161 507.254486,101.261055 507.254486,93.577141 
	C516.551025,94.432617 525.817810,95.285355 535.412476,96.346817 
z"/>
<path fill="#020202" opacity="1.000000" stroke="none" 
	d="
M930.003662,128.675659 
	C926.488342,118.536163 927.656250,109.460747 934.929260,101.930656 
	C942.226135,94.375931 951.455444,93.097977 961.199036,95.933487 
	C972.191162,99.132309 979.122131,110.014519 977.810852,121.286102 
	C976.347107,133.868622 967.462402,142.513748 955.272339,143.212128 
	C943.864502,143.865707 935.224426,139.598724 930.003662,128.675659 
z"/>
<path fill="#0B0B0B" opacity="1.000000" stroke="none" 
	d="
M606.180298,116.796967 
	C607.701599,120.446640 609.101379,123.731697 610.690063,127.460114 
	C601.869507,127.460114 593.796875,127.460114 585.083435,127.460114 
	C589.202026,117.736275 593.273621,108.123322 597.805359,97.423988 
	C600.842346,104.418625 603.450500,110.425499 606.180298,116.796967 
z"/>
</svg>