<svg width="1412" height="278" viewBox="0 0 1412 278" fill="none" xmlns="http://www.w3.org/2000/svg">
<path d="M460.79 0.689514C-79.7791 0.689514 -273.345 453.13 -323.704 618.37C-374.063 783.609 -540.876 1505.36 -540.876 1505.36L2514.48 1505.37C2543.86 913.654 2421.03 -815.786 1802.38 -154.774C1198.07 490.903 1001.36 0.689514 460.79 0.689514Z" fill="#1A7FB7"/>
<path d="M276.666 97.6822C-263.903 97.6822 -457.469 550.123 -507.828 715.362C-558.187 880.602 -725 1763.45 -725 1763.45L2330.36 1763.46C2359.73 1171.74 2236.91 -718.793 1618.25 -57.7809C1013.95 587.895 817.235 97.6822 276.666 97.6822Z" fill="#53337D"/>
<path fill-rule="evenodd" clip-rule="evenodd" d="M1898.03 -202.328C1837.18 -210.587 1768.65 -179.603 1691.63 -97.3025C1540.36 64.3155 1414.35 155.137 1301.83 200.24C1189.19 245.39 1090.32 244.626 993.632 223.586C925.806 208.826 858.849 184.019 789.057 158.161C759.646 147.264 729.732 136.181 699.037 125.585C595.307 89.7751 482.073 59.269 347.484 59.269C78.4359 59.269 -85.1007 177.133 -187.776 315.505C-281.908 442.364 -324.919 586.486 -350.872 673.451C-353.268 681.481 -355.519 689.023 -357.651 696.02C-370.163 737.074 -394.741 864.809 -424.608 1033.7C-454.45 1202.45 -489.522 1411.97 -523.021 1616.33C-556.521 1820.7 -588.447 2019.91 -611.998 2168.02C-623.773 2242.07 -633.455 2303.36 -640.193 2346.13C-643.562 2367.51 -646.195 2384.27 -647.985 2395.68C-648.881 2401.38 -649.566 2405.75 -650.026 2408.69L-650.092 2409.11L2397.84 2409.11C2412.18 2110.91 2388.62 1321.36 2284.68 687.252C2232.5 368.88 2160.14 90.2883 2062.49 -67.3777C2013.65 -146.237 1958.97 -194.055 1898.03 -202.328ZM-654.182 2412.61L-657.64 2412.07L-658.272 2416.11L2404.5 2416.11L2404.67 2412.79C2419.37 2116.69 2396 1323.11 2291.59 686.12C2239.41 367.754 2166.9 87.9026 2068.44 -71.0635C2019.23 -150.52 1963.04 -200.565 1898.97 -209.264C1834.79 -217.975 1764.15 -185.038 1686.52 -102.086C1535.63 59.1345 1410.43 149.165 1299.22 193.743C1188.12 238.275 1090.72 237.55 995.121 216.746C927.799 202.096 861.574 177.559 792.001 151.781C762.49 140.846 732.376 129.689 701.321 118.968C597.248 83.0396 483.178 52.269 347.484 52.269C75.962 52.269 -89.5634 171.4 -193.398 311.334C-288.305 439.237 -331.64 584.494 -357.572 671.418C-359.97 679.457 -362.22 686.998 -364.347 693.979C-377.015 735.546 -401.675 863.821 -431.501 1032.48C-461.351 1201.27 -496.428 1410.82 -529.929 1615.2C-563.431 1819.58 -595.359 2018.8 -618.911 2166.92C-630.687 2240.98 -640.369 2302.27 -647.108 2345.04C-650.477 2366.42 -653.11 2383.18 -654.901 2394.59C-655.796 2400.3 -656.481 2404.67 -656.942 2407.61L-657.638 2412.05C-657.639 2412.06 -657.64 2412.07 -654.182 2412.61Z" fill="#53337D"/>
</svg>