<svg width="89" height="76" viewBox="0 0 89 76" fill="none" xmlns="http://www.w3.org/2000/svg">
<path fill-rule="evenodd" clip-rule="evenodd" d="M73.7944 21.1909V0.5H50.6407V5.86191H68.787C68.7681 11.1501 68.7653 16.1506 68.7649 21.0941C65.6308 21.4986 62.7596 22.759 60.3942 24.6323V14.5927H41.7383V33.2929H54.5708C54.1398 34.7886 53.9088 36.3677 53.9088 37.9994C53.9088 39.9259 54.2309 41.7793 54.8239 43.5085V48.2908H57.3787C60.0487 51.8028 64.0473 54.2538 68.6153 54.8846V70.2932H50.6684V75.5H73.7999V54.8069C81.8445 53.4468 87.9998 46.4222 87.9998 37.9994C87.9998 29.5746 81.8417 22.5487 73.7944 21.1909ZM5.49124 5.81929H23.4603V0.590316H0.240109V23.7219H5.5134C5.49124 17.7396 5.49124 11.9124 5.49124 5.81929ZM55.1209 27.8202H47.1666V19.8881H55.1209V27.8202ZM14.1977 33.3138H33.0973V14.6357H14.1977V33.3138ZM19.7147 19.9312H27.669V27.8854H19.7147V19.9312ZM14.2106 61.6527V42.7974H33.3318C33.3318 44.0919 33.334 45.3809 33.3362 46.6658V46.6672V46.6685V46.6698V46.6711V46.6725V46.6738V46.6751V46.6765V46.6778V46.6792C33.3438 51.1742 33.3514 55.6202 33.2653 60.0796C33.2653 60.6113 32.2682 61.5862 31.7143 61.5862C27.2618 61.6722 22.8092 61.6648 18.2221 61.6571H18.2215H18.2209H18.2202H18.2195H18.2189H18.2182H18.2175H18.2169H18.2162H18.2155C16.8928 61.6549 15.5589 61.6527 14.2106 61.6527ZM19.6168 55.9363H27.6597V48.0928H19.6168V55.9363ZM0.212891 52.1912H5.3754C5.3754 58.1292 5.37539 64.0229 5.35324 70.1824H23.4552V75.4557H0.212891V52.1912ZM41.1563 62.0051H47.3823V55.8234H41.1563V62.0051ZM60.9847 62.0298H54.7808V55.8481H60.9847V62.0298ZM47.3866 42.1335H41.227V48.3374H47.3866V42.1335ZM54.1635 49.113H48.0039V55.3169H54.1635V49.113ZM72.2327 39.2778H77.7725C78.4714 39.2778 79.0509 38.6982 79.0509 37.9994C79.0509 37.3005 78.4714 36.721 77.7725 36.721H72.2327V31.1812C72.2327 30.4823 71.6532 29.9028 70.9543 29.9028C70.2555 29.9028 69.6759 30.4823 69.6759 31.1812V36.721H64.1361C63.4373 36.721 62.8577 37.3005 62.8577 37.9994C62.8577 38.6982 63.4373 39.2778 64.1361 39.2778H69.6759V44.8176C69.6759 45.5164 70.2555 46.096 70.9543 46.096C71.6532 46.096 72.2327 45.5164 72.2327 44.8176V39.2778Z" fill="white"/>
</svg>