<svg width="52" height="45" viewBox="0 0 52 45" fill="none" xmlns="http://www.w3.org/2000/svg">
<path fill-rule="evenodd" clip-rule="evenodd" d="M43.665 12.6389V0.5H30.0815V3.64565H40.7273C40.7163 6.74825 40.7146 9.68203 40.7144 12.5824C38.8751 12.82 37.1901 13.5601 35.8023 14.66V8.76671H24.8575V19.7375H32.3887C32.1357 20.6154 32 21.5423 32 22.5C32 23.6299 32.1888 24.7169 32.5365 25.731V28.5377H34.0357C35.6016 30.5974 37.9464 32.035 40.6252 32.4056V41.4454H30.0963V44.5H43.6668V32.3608C48.3876 31.564 52 27.4423 52 22.5C52 17.5571 48.3866 13.435 43.665 12.6389ZM3.59205 3.62005H14.1339V0.552398H0.511393V14.1229H3.60505C3.59205 10.6133 3.59205 7.19465 3.59205 3.62005ZM32.7086 16.5268H28.0421V11.8734H32.7086V16.5268ZM8.70076 19.7507H19.7885V8.79297H8.70076V19.7507ZM11.9374 11.8996H16.6039V16.5661H11.9374V11.8996ZM8.71031 36.3761V25.3143H19.9281C19.9281 26.0764 19.9293 26.8352 19.9306 27.5917C19.9351 30.2287 19.9396 32.837 19.8891 35.4532C19.8891 35.7652 19.3041 36.3371 18.9792 36.3371C16.3678 36.3875 13.7564 36.3832 11.0662 36.3787H11.066H11.0657H11.0655H11.0652H11.065H11.0647H11.0644H11.0642H11.0639H11.0637H11.0628H11.0619H11.061H11.0602H11.0593H11.0584H11.0575H11.0566H11.0557H11.0548C10.2805 36.3774 9.4996 36.3761 8.71031 36.3761ZM11.882 33.0225H16.6004V28.421H11.882V33.0225ZM0.49707 30.8256H3.52573C3.52573 34.3092 3.52573 37.7668 3.51273 41.3804H14.1325V44.474H0.49707V30.8256ZM24.5176 36.5841H28.1701V32.9575H24.5176V36.5841ZM36.1508 36.5966H32.5112V32.9701H36.1508V36.5966ZM28.1717 24.924H24.5581V28.5636H28.1717V24.924ZM32.1483 29.019H28.5347V32.6585H32.1483V29.019ZM42.75 23.25H46C46.41 23.25 46.75 22.91 46.75 22.5C46.75 22.09 46.41 21.75 46 21.75H42.75V18.5C42.75 18.09 42.41 17.75 42 17.75C41.59 17.75 41.25 18.09 41.25 18.5V21.75H38C37.59 21.75 37.25 22.09 37.25 22.5C37.25 22.91 37.59 23.25 38 23.25H41.25V26.5C41.25 26.91 41.59 27.25 42 27.25C42.41 27.25 42.75 26.91 42.75 26.5V23.25Z" fill="white"/>
</svg>