<svg width="17" height="16" viewBox="0 0 17 16" fill="none" xmlns="http://www.w3.org/2000/svg">
<path d="M12.5785 0.5H4.73874C2.38681 0.5 0.818848 2.06796 0.818848 4.41989V9.12377C0.818848 11.4757 2.38681 13.0437 4.73874 13.0437V14.7135C4.73874 15.3407 5.43648 15.717 5.95391 15.3642L9.44261 13.0437H12.5785C14.9305 13.0437 16.4984 11.4757 16.4984 9.12377V4.41989C16.4984 2.06796 14.9305 0.5 12.5785 0.5ZM8.65864 10.041C8.50269 10.041 8.35314 9.97907 8.24287 9.8688C8.1326 9.75854 8.07065 9.60898 8.07065 9.45304C8.07065 9.29709 8.1326 9.14754 8.24287 9.03727C8.35314 8.927 8.50269 8.86505 8.65864 8.86505C8.81458 8.86505 8.96413 8.927 9.0744 9.03727C9.18467 9.14754 9.24662 9.29709 9.24662 9.45304C9.24662 9.60898 9.18467 9.75854 9.0744 9.8688C8.96413 9.97907 8.81458 10.041 8.65864 10.041ZM9.64645 6.78751C9.3407 6.99134 9.24662 7.12462 9.24662 7.34413V7.50877C9.24662 7.8302 8.98007 8.09675 8.65864 8.09675C8.3372 8.09675 8.07065 7.8302 8.07065 7.50877V7.34413C8.07065 6.43472 8.73703 5.98785 8.98791 5.81538C9.27798 5.61938 9.37206 5.4861 9.37206 5.28227C9.37206 4.89028 9.05062 4.56885 8.65864 4.56885C8.26665 4.56885 7.94521 4.89028 7.94521 5.28227C7.94521 5.6037 7.67866 5.87025 7.35723 5.87025C7.0358 5.87025 6.76925 5.6037 6.76925 5.28227C6.76925 4.23958 7.61594 3.39288 8.65864 3.39288C9.70133 3.39288 10.548 4.23958 10.548 5.28227C10.548 6.17601 9.88948 6.62287 9.64645 6.78751Z" fill="white"/>
</svg>
