<svg width="25" height="27" viewBox="0 0 25 27" fill="none" xmlns="http://www.w3.org/2000/svg">
<path d="M24.1313 4.99582C22.1104 4.79498 20.0895 4.64435 18.056 4.53138V4.51883L17.7799 2.88703C17.5916 1.73222 17.3154 0 14.3782 0H11.0895C8.16481 0 7.88865 1.6569 7.68782 2.87448L7.42422 4.48117C6.25686 4.55649 5.08949 4.6318 3.92213 4.74477L1.36146 4.99582C0.834266 5.04602 0.457697 5.51046 0.507906 6.0251C0.558115 6.53975 1.01 6.91632 1.53719 6.86611L4.09786 6.61506C10.6753 5.96234 17.3029 6.21339 23.9556 6.87866H24.056C24.533 6.87866 24.9472 6.51464 24.9974 6.0251C25.0163 5.77436 24.9362 5.52619 24.7743 5.33378C24.6124 5.14138 24.3816 5.02005 24.1313 4.99582ZM21.8217 8.64854C21.5204 8.33473 21.1062 8.159 20.6794 8.159H4.81334C4.38656 8.159 3.95979 8.33473 3.67108 8.64854C3.38238 8.96234 3.2192 9.38912 3.24431 9.82845L4.02255 22.7071C4.16062 24.6151 4.33636 27 8.71711 27H16.7757C21.1564 27 21.3322 24.6276 21.4702 22.7071L22.2485 9.841C22.2736 9.38912 22.1104 8.96234 21.8217 8.64854ZM14.8301 20.7113H10.6502C10.1355 20.7113 9.70874 20.2845 9.70874 19.7699C9.70874 19.2552 10.1355 18.8285 10.6502 18.8285H14.8301C15.3447 18.8285 15.7715 19.2552 15.7715 19.7699C15.7715 20.2845 15.3447 20.7113 14.8301 20.7113ZM15.8845 15.6904H9.60832C9.09367 15.6904 8.6669 15.2636 8.6669 14.749C8.6669 14.2343 9.09367 13.8075 9.60832 13.8075H15.8845C16.3991 13.8075 16.8259 14.2343 16.8259 14.749C16.8259 15.2636 16.3991 15.6904 15.8845 15.6904Z" fill="#FD0721"/>
</svg>
