<svg width="45" height="45" viewBox="0 0 45 45" fill="none" xmlns="http://www.w3.org/2000/svg">
<path d="M22.5 0C10.1025 0 0 10.1025 0 22.5C0 34.8975 10.1025 45 22.5 45C34.8975 45 45 34.8975 45 22.5C45 10.1025 34.8975 0 22.5 0ZM31.32 24.1875H13.32C12.3975 24.1875 11.6325 23.4225 11.6325 22.5C11.6325 21.5775 12.3975 20.8125 13.32 20.8125H31.32C31.7676 20.8125 32.1968 20.9903 32.5132 21.3068C32.8297 21.6232 33.0075 22.0524 33.0075 22.5C33.0075 22.9476 32.8297 23.3768 32.5132 23.6932C32.1968 24.0097 31.7676 24.1875 31.32 24.1875Z" fill="url(#paint0_linear_62_716)"/>
<defs>
<linearGradient id="paint0_linear_62_716" x1="0" y1="45" x2="45" y2="45" gradientUnits="userSpaceOnUse">
<stop stop-color="#9AF82E"/>
<stop offset="1" stop-color="#5EA30F"/>
</linearGradient>
</defs>
</svg>
