<svg width="45" height="45" viewBox="0 0 45 45" fill="none" xmlns="http://www.w3.org/2000/svg">
<path d="M22.5 0C10.1025 0 0 10.1025 0 22.5C0 34.8975 10.1025 45 22.5 45C34.8975 45 45 34.8975 45 22.5C45 10.1025 34.8975 0 22.5 0ZM31.5 24.1875H24.1875V31.5C24.1875 32.4225 23.4225 33.1875 22.5 33.1875C21.5775 33.1875 20.8125 32.4225 20.8125 31.5V24.1875H13.5C12.5775 24.1875 11.8125 23.4225 11.8125 22.5C11.8125 21.5775 12.5775 20.8125 13.5 20.8125H20.8125V13.5C20.8125 12.5775 21.5775 11.8125 22.5 11.8125C23.4225 11.8125 24.1875 12.5775 24.1875 13.5V20.8125H31.5C32.4225 20.8125 33.1875 21.5775 33.1875 22.5C33.1875 23.4225 32.4225 24.1875 31.5 24.1875Z" fill="url(#paint0_linear_62_719)"/>
<defs>
<linearGradient id="paint0_linear_62_719" x1="0" y1="45" x2="45" y2="45" gradientUnits="userSpaceOnUse">
<stop stop-color="#9AF82E"/>
<stop offset="1" stop-color="#5EA30F"/>
</linearGradient>
</defs>
</svg>
