<svg width="33" height="32" viewBox="0 0 33 32" fill="none" xmlns="http://www.w3.org/2000/svg">
<path d="M32.0192 30.7993C32.0192 31.4557 31.4749 32 30.8185 32H1.20072C0.544327 32 0 31.4557 0 30.7993C0 30.1429 0.544327 29.5986 1.20072 29.5986H30.8185C31.4749 29.5986 32.0192 30.1429 32.0192 30.7993ZM21.4385 4.01841L4.24415 21.2127C3.58775 21.8691 2.53112 21.8691 1.89073 21.2127H1.87472C0.806167 20.1387 0.206313 18.6853 0.206313 17.1703C0.206313 15.6553 0.806167 14.2019 1.87472 13.1279L13.3216 1.68101C15.5629 -0.560336 19.1811 -0.560336 21.4225 1.68101C22.0788 2.30538 22.0788 3.37803 21.4385 4.01841Z" fill="#53337D"/>
<path d="M30.1417 10.3713L25.2588 5.48839C24.6024 4.832 23.5457 4.832 22.9054 5.48839L5.71105 22.6827C5.05465 23.3231 5.05465 24.3797 5.71105 25.0361L10.594 29.9351C11.6709 31.0042 13.1269 31.6042 14.6444 31.6042C16.1619 31.6042 17.6179 31.0042 18.6948 29.9351L30.1257 18.4882C32.3991 16.2468 32.3991 12.6127 30.1417 10.3713ZM17.238 24.828L15.3008 26.7812C14.9006 27.1814 14.2442 27.1814 13.8279 26.7812C13.6355 26.5843 13.5277 26.32 13.5277 26.0447C13.5277 25.7694 13.6355 25.5051 13.8279 25.3083L15.7811 23.3551C16.1653 22.9709 16.8377 22.9709 17.238 23.3551C17.6382 23.7553 17.6382 24.4438 17.238 24.828ZM23.5938 18.4722L19.6874 22.3945C19.2872 22.7788 18.6308 22.7788 18.2145 22.3945C18.0221 22.1977 17.9144 21.9334 17.9144 21.6581C17.9144 21.3828 18.0221 21.1185 18.2145 20.9216L22.1369 16.9993C22.5211 16.6151 23.1935 16.6151 23.5938 16.9993C23.994 17.4155 23.994 18.0719 23.5938 18.4722Z" fill="#53337D"/>
</svg>
