<svg width="44" height="40" viewBox="0 0 44 40" fill="none" xmlns="http://www.w3.org/2000/svg">
<path d="M42.4961 26.9998C43.0561 26.9998 43.4961 27.4398 43.4961 27.9998V29.9998C43.4961 33.3198 40.8161 35.9998 37.4961 35.9998C37.4961 32.6998 34.7961 29.9998 31.4961 29.9998C28.1961 29.9998 25.4961 32.6998 25.4961 35.9998H21.4961C21.4961 32.6998 18.7961 29.9998 15.4961 29.9998C12.1961 29.9998 9.49609 32.6998 9.49609 35.9998C6.17609 35.9998 3.49609 33.3198 3.49609 29.9998V25.9998C3.49609 24.8998 4.39609 23.9998 5.49609 23.9998H24.4961C25.8222 23.9998 27.0939 23.473 28.0316 22.5353C28.9693 21.5976 29.4961 20.3258 29.4961 18.9998V7.99976C29.4961 6.89976 30.3961 5.99976 31.4961 5.99976H33.1761C34.6161 5.99976 35.9361 6.77976 36.6561 8.01976L37.9361 10.2598C38.1161 10.5798 37.8761 10.9998 37.4961 10.9998C36.17 10.9998 34.8982 11.5265 33.9606 12.4642C33.0229 13.4019 32.4961 14.6737 32.4961 15.9998V21.9998C32.4961 23.3258 33.0229 24.5976 33.9606 25.5353C34.8982 26.473 36.17 26.9998 37.4961 26.9998H42.4961Z" fill="white"/>
<path d="M15.5 40C16.5609 40 17.5783 39.5786 18.3284 38.8284C19.0786 38.0783 19.5 37.0609 19.5 36C19.5 34.9391 19.0786 33.9217 18.3284 33.1716C17.5783 32.4214 16.5609 32 15.5 32C14.4391 32 13.4217 32.4214 12.6716 33.1716C11.9214 33.9217 11.5 34.9391 11.5 36C11.5 37.0609 11.9214 38.0783 12.6716 38.8284C13.4217 39.5786 14.4391 40 15.5 40ZM31.5 40C32.5609 40 33.5783 39.5786 34.3284 38.8284C35.0786 38.0783 35.5 37.0609 35.5 36C35.5 34.9391 35.0786 33.9217 34.3284 33.1716C33.5783 32.4214 32.5609 32 31.5 32C30.4391 32 29.4217 32.4214 28.6716 33.1716C27.9214 33.9217 27.5 34.9391 27.5 36C27.5 37.0609 27.9214 38.0783 28.6716 38.8284C29.4217 39.5786 30.4391 40 31.5 40ZM43.5 21.06V24H37.5C36.4 24 35.5 23.1 35.5 22V16C35.5 14.9 36.4 14 37.5 14H40.08L42.98 19.08C43.32 19.68 43.5 20.36 43.5 21.06ZM25.66 0H10.88C9.1695 0.000486543 7.51228 0.595124 6.19168 1.68225C4.87108 2.76937 3.96912 4.28146 3.64 5.96H12.38C13.14 5.96 13.74 6.58 13.74 7.34C13.74 8.1 13.14 8.7 12.38 8.7H3.5V11.46H8.7C9.46 11.46 10.08 12.08 10.08 12.84C10.08 13.6 9.46 14.2 8.7 14.2H3.5V16.96H5.04C5.8 16.96 6.42 17.58 6.42 18.34C6.42 19.1 5.8 19.7 5.04 19.7H3.5V20.16C3.5 21.26 4.4 22.16 5.5 22.16H23.8C25.84 22.16 27.5 20.5 27.5 18.46V1.84C27.5 0.82 26.68 0 25.66 0ZM3.64 5.96H1.38C0.62 5.96 0 6.58 0 7.34C0 8.1 0.62 8.7 1.38 8.7H3.5V7.38C3.5 6.9 3.56 6.42 3.64 5.96ZM3.2 11.46H1.38C0.62 11.46 0 12.08 0 12.84C0 13.6 0.62 14.2 1.38 14.2H3.5V11.46H3.2ZM3.2 16.96H1.38C0.62 16.96 0 17.58 0 18.34C0 19.1 0.62 19.7 1.38 19.7H3.5V16.96H3.2Z" fill="white"/>
</svg>
