<svg width="41" height="41" viewBox="0 0 41 41" fill="none" xmlns="http://www.w3.org/2000/svg">
<path d="M40.339 13.6214L39.7763 8.24657C38.9613 2.38665 36.303 0 30.6178 0H9.73937C4.03468 0 1.39578 2.38665 0.561422 8.30478L0.0375218 13.6408C-0.156515 15.717 0.406192 17.735 1.62863 19.3067C3.10331 21.2276 5.37354 22.3142 7.89602 22.3142C10.3409 22.3142 12.6887 21.0918 14.1634 19.132C14.8368 20.1202 15.7431 20.9274 16.8023 21.4824C17.8615 22.0374 19.041 22.3231 20.2368 22.3142C22.7399 22.3142 24.9325 21.15 26.2713 19.2097C27.7654 21.1306 30.0744 22.3142 32.4805 22.3142C35.0612 22.3142 37.3896 21.1694 38.8449 19.1514C40.0091 17.5991 40.533 15.6394 40.339 13.6214ZM18.9755 29.9011C17.7843 30.0283 16.6826 30.5927 15.8833 31.4851C15.0841 32.3776 14.6441 33.5346 14.6485 34.7326V40.0492C14.6485 40.5731 15.0754 41 15.5993 41H24.8549C25.3788 41 25.8056 40.5731 25.8056 40.0492V35.4117C25.825 31.3564 23.4384 29.4354 18.9755 29.9011Z" fill="white"/>
<path d="M38.424 25.5117V31.294C38.424 36.6494 34.0776 40.9958 28.7222 40.9958C28.47 40.9958 28.2282 40.8957 28.0499 40.7174C27.8716 40.5391 27.7714 40.2972 27.7714 40.0451V35.4076C27.7714 32.9239 27.0147 30.9835 25.54 29.6641C24.2399 28.4805 22.4742 27.8984 20.2816 27.8984C19.7965 27.8984 19.3114 27.9178 18.7875 27.976C17.1176 28.1469 15.5711 28.9329 14.4486 30.1809C13.326 31.429 12.7078 33.0499 12.7141 34.7285V40.0451C12.7141 40.569 12.2873 40.9958 11.7634 40.9958C6.40795 40.9958 2.06152 36.6494 2.06152 31.294V25.5505C2.06166 25.239 2.13679 24.9321 2.28057 24.6557C2.42435 24.3794 2.63255 24.1417 2.88757 23.9628C3.14259 23.7839 3.43694 23.6691 3.74573 23.6279C4.05451 23.5868 4.36866 23.6206 4.66162 23.7266C5.18552 23.9012 5.70942 24.037 6.25272 24.1146C6.48556 24.1534 6.73781 24.1922 6.97065 24.1922C7.28111 24.2311 7.59157 24.2505 7.90203 24.2505C10.1529 24.2505 12.3649 23.4161 14.1112 21.9802C15.7799 23.4161 17.9531 24.2505 20.2428 24.2505C22.5518 24.2505 24.6862 23.4549 26.3549 22.019C28.1013 23.4355 30.2745 24.2505 32.4865 24.2505C32.8358 24.2505 33.185 24.2311 33.5149 24.1922C34.3159 24.1257 35.1051 23.9562 35.8627 23.6877C36.1535 23.5882 36.4638 23.5593 36.7679 23.6036C37.0721 23.6478 37.3613 23.7639 37.6117 23.9421C37.862 24.1204 38.0663 24.3558 38.2076 24.6287C38.3488 24.9017 38.423 25.2044 38.424 25.5117Z" fill="white"/>
</svg>
