<svg width="33" height="32" viewBox="0 0 33 32" fill="none" xmlns="http://www.w3.org/2000/svg">
<path d="M0 15.4706C0.0501071 15.2513 0.0939508 15.0259 0.150321 14.8066C0.36954 13.9736 0.770397 13.2408 1.37795 12.627C2.5492 11.4495 3.72045 10.2719 4.89797 9.10695C4.98566 9.01927 5.1485 8.95663 5.27377 8.95037C5.81869 8.93158 6.35734 8.95037 6.90225 8.94411C7.92318 8.92532 8.76874 9.30738 9.48277 10.0214C10.986 11.5246 12.4955 13.0341 13.9987 14.5373C15.1261 15.6647 16.479 15.6647 17.6126 14.531C19.1221 13.0278 20.6316 11.5246 22.1285 10.0151C22.8488 9.28859 23.7069 8.91279 24.7341 8.93158C25.3918 8.94411 26.0494 8.92532 26.7071 8.94411C26.8449 8.95037 27.014 9.013 27.1142 9.11322C28.2792 10.2657 29.4442 11.4181 30.5904 12.5894C32.5007 14.5436 32.507 17.4936 30.5966 19.4603C29.4442 20.6441 28.2667 21.7966 27.1017 22.9616C27.0328 23.0305 26.9326 23.1119 26.8449 23.1119C25.968 23.1119 25.0911 23.1369 24.2143 23.0806C23.4063 23.0305 22.7361 22.6296 22.1599 22.0534C20.6065 20.4938 19.0532 18.9342 17.4874 17.3809C16.7295 16.6293 15.671 16.4539 14.7503 16.9299C14.4872 17.0677 14.2492 17.2681 14.0362 17.4748C12.5393 18.9593 11.0424 20.4437 9.55793 21.9406C8.78127 22.7236 7.86681 23.1307 6.75819 23.0994C6.26965 23.0868 5.77484 23.1056 5.2863 23.0868C5.15477 23.0806 4.99818 23.0242 4.90423 22.9302C3.71419 21.759 2.53041 20.5752 1.35915 19.3914C0.651392 18.6586 0.225482 17.7817 0.0626339 16.7733C0.0501071 16.6919 0.0250535 16.6168 0 16.5353C0 16.1783 0 15.8276 0 15.4706Z" fill="#53337D"/>
<path d="M16.5361 0C16.7991 0.0626339 17.0622 0.112741 17.3253 0.181638C18.0831 0.38833 18.7658 0.751606 19.3233 1.30278C21.3526 3.31333 23.3757 5.34267 25.3988 7.35948C25.4301 7.3908 25.4489 7.42211 25.5115 7.5098C25.2672 7.5098 25.0605 7.51606 24.8601 7.5098C23.3632 7.45969 22.123 7.99834 21.077 9.06938C19.6051 10.5789 18.1019 12.057 16.6112 13.5477C16.0413 14.1177 15.5966 14.1239 15.0329 13.5602C13.5109 12.0382 11.9763 10.535 10.4794 8.99422C9.48976 7.97955 8.31224 7.51606 6.91551 7.52859C6.80276 7.52859 6.69002 7.52859 6.51465 7.52859C6.60234 7.42211 6.65244 7.35321 6.71508 7.29684C8.65673 5.35519 10.5921 3.41355 12.5338 1.4719C13.3104 0.688972 14.2374 0.206692 15.3272 0.0501071C15.3773 0.0438437 15.4212 0.0187902 15.4713 0C15.8283 0 16.1791 0 16.5361 0Z" fill="#53337D"/>
<path d="M25.5107 24.5274C25.4042 24.6401 25.3666 24.6903 25.3228 24.7341C23.3811 26.6757 21.452 28.6237 19.4978 30.5528C17.7002 32.3316 14.9444 32.4819 12.9589 30.9411C12.796 30.8158 12.6394 30.6718 12.4954 30.5215C10.5663 28.5986 8.64339 26.6757 6.71427 24.7466C6.65163 24.684 6.59526 24.6151 6.52637 24.5337C7.03996 24.4898 7.52851 24.4836 7.99826 24.3959C8.94403 24.2205 9.74575 23.7507 10.4285 23.0618C11.9567 21.521 13.4975 19.9927 15.032 18.4582C15.5644 17.9258 16.0467 17.9258 16.5728 18.4519C18.0573 19.9363 19.5542 21.402 21.0136 22.9052C22.0846 24.0138 23.3623 24.565 24.8969 24.5211C25.0848 24.5211 25.2602 24.5274 25.5107 24.5274Z" fill="#53337D"/>
</svg>
